G04 #@! TF.GenerationSoftware,KiCad,Pcbnew,(5.1.6)-1*
G04 #@! TF.CreationDate,2020-08-05T18:30:33+02:00*
G04 #@! TF.ProjectId,C64-PSU-251053-11_Austauschplatine,4336342d-5053-4552-9d32-35313035332d,0.3.1*
G04 #@! TF.SameCoordinates,Original*
G04 #@! TF.FileFunction,Copper,L2,Bot*
G04 #@! TF.FilePolarity,Positive*
%FSLAX46Y46*%
G04 Gerber Fmt 4.6, Leading zero omitted, Abs format (unit mm)*
G04 Created by KiCad (PCBNEW (5.1.6)-1) date 2020-08-05 18:30:33*
%MOMM*%
%LPD*%
G01*
G04 APERTURE LIST*
G04 #@! TA.AperFunction,NonConductor*
%ADD10C,0.300000*%
G04 #@! TD*
G04 #@! TA.AperFunction,NonConductor*
%ADD11C,0.150000*%
G04 #@! TD*
G04 #@! TA.AperFunction,EtchedComponent*
%ADD12C,0.010000*%
G04 #@! TD*
G04 #@! TA.AperFunction,ComponentPad*
%ADD13C,2.400000*%
G04 #@! TD*
G04 #@! TA.AperFunction,ComponentPad*
%ADD14R,3.000000X3.000000*%
G04 #@! TD*
G04 #@! TA.AperFunction,ComponentPad*
%ADD15C,1.800000*%
G04 #@! TD*
G04 #@! TA.AperFunction,ComponentPad*
%ADD16R,1.600000X1.600000*%
G04 #@! TD*
G04 #@! TA.AperFunction,ComponentPad*
%ADD17C,1.600000*%
G04 #@! TD*
G04 #@! TA.AperFunction,ComponentPad*
%ADD18R,2.200000X2.200000*%
G04 #@! TD*
G04 #@! TA.AperFunction,ComponentPad*
%ADD19O,2.200000X2.200000*%
G04 #@! TD*
G04 #@! TA.AperFunction,ComponentPad*
%ADD20R,2.400000X2.400000*%
G04 #@! TD*
G04 #@! TA.AperFunction,ComponentPad*
%ADD21O,1.270000X2.540000*%
G04 #@! TD*
G04 #@! TA.AperFunction,ComponentPad*
%ADD22C,2.349500*%
G04 #@! TD*
G04 #@! TA.AperFunction,ComponentPad*
%ADD23C,2.800000*%
G04 #@! TD*
G04 #@! TA.AperFunction,ComponentPad*
%ADD24R,2.800000X2.800000*%
G04 #@! TD*
G04 #@! TA.AperFunction,Conductor*
%ADD25C,2.540000*%
G04 #@! TD*
G04 #@! TA.AperFunction,Conductor*
%ADD26C,1.270000*%
G04 #@! TD*
G04 APERTURE END LIST*
D10*
D11*
X120444285Y-97497142D02*
X120406190Y-97535238D01*
X120368095Y-97649523D01*
X120368095Y-97725714D01*
X120406190Y-97840000D01*
X120482380Y-97916190D01*
X120558571Y-97954285D01*
X120710952Y-97992380D01*
X120825238Y-97992380D01*
X120977619Y-97954285D01*
X121053809Y-97916190D01*
X121130000Y-97840000D01*
X121168095Y-97725714D01*
X121168095Y-97649523D01*
X121130000Y-97535238D01*
X121091904Y-97497142D01*
X121168095Y-96811428D02*
X121168095Y-96963809D01*
X121130000Y-97040000D01*
X121091904Y-97078095D01*
X120977619Y-97154285D01*
X120825238Y-97192380D01*
X120520476Y-97192380D01*
X120444285Y-97154285D01*
X120406190Y-97116190D01*
X120368095Y-97040000D01*
X120368095Y-96887619D01*
X120406190Y-96811428D01*
X120444285Y-96773333D01*
X120520476Y-96735238D01*
X120710952Y-96735238D01*
X120787142Y-96773333D01*
X120825238Y-96811428D01*
X120863333Y-96887619D01*
X120863333Y-97040000D01*
X120825238Y-97116190D01*
X120787142Y-97154285D01*
X120710952Y-97192380D01*
X120901428Y-96049523D02*
X120368095Y-96049523D01*
X121206190Y-96240000D02*
X120634761Y-96430476D01*
X120634761Y-95935238D01*
X120672857Y-95630476D02*
X120672857Y-95020952D01*
X120368095Y-94640000D02*
X121168095Y-94640000D01*
X121168095Y-94335238D01*
X121130000Y-94259047D01*
X121091904Y-94220952D01*
X121015714Y-94182857D01*
X120901428Y-94182857D01*
X120825238Y-94220952D01*
X120787142Y-94259047D01*
X120749047Y-94335238D01*
X120749047Y-94640000D01*
X120406190Y-93878095D02*
X120368095Y-93763809D01*
X120368095Y-93573333D01*
X120406190Y-93497142D01*
X120444285Y-93459047D01*
X120520476Y-93420952D01*
X120596666Y-93420952D01*
X120672857Y-93459047D01*
X120710952Y-93497142D01*
X120749047Y-93573333D01*
X120787142Y-93725714D01*
X120825238Y-93801904D01*
X120863333Y-93840000D01*
X120939523Y-93878095D01*
X121015714Y-93878095D01*
X121091904Y-93840000D01*
X121130000Y-93801904D01*
X121168095Y-93725714D01*
X121168095Y-93535238D01*
X121130000Y-93420952D01*
X121168095Y-93078095D02*
X120520476Y-93078095D01*
X120444285Y-93040000D01*
X120406190Y-93001904D01*
X120368095Y-92925714D01*
X120368095Y-92773333D01*
X120406190Y-92697142D01*
X120444285Y-92659047D01*
X120520476Y-92620952D01*
X121168095Y-92620952D01*
X121091904Y-91668571D02*
X121130000Y-91630476D01*
X121168095Y-91554285D01*
X121168095Y-91363809D01*
X121130000Y-91287619D01*
X121091904Y-91249523D01*
X121015714Y-91211428D01*
X120939523Y-91211428D01*
X120825238Y-91249523D01*
X120368095Y-91706666D01*
X120368095Y-91211428D01*
X121168095Y-90487619D02*
X121168095Y-90868571D01*
X120787142Y-90906666D01*
X120825238Y-90868571D01*
X120863333Y-90792380D01*
X120863333Y-90601904D01*
X120825238Y-90525714D01*
X120787142Y-90487619D01*
X120710952Y-90449523D01*
X120520476Y-90449523D01*
X120444285Y-90487619D01*
X120406190Y-90525714D01*
X120368095Y-90601904D01*
X120368095Y-90792380D01*
X120406190Y-90868571D01*
X120444285Y-90906666D01*
X120368095Y-89687619D02*
X120368095Y-90144761D01*
X120368095Y-89916190D02*
X121168095Y-89916190D01*
X121053809Y-89992380D01*
X120977619Y-90068571D01*
X120939523Y-90144761D01*
X121168095Y-89192380D02*
X121168095Y-89116190D01*
X121130000Y-89040000D01*
X121091904Y-89001904D01*
X121015714Y-88963809D01*
X120863333Y-88925714D01*
X120672857Y-88925714D01*
X120520476Y-88963809D01*
X120444285Y-89001904D01*
X120406190Y-89040000D01*
X120368095Y-89116190D01*
X120368095Y-89192380D01*
X120406190Y-89268571D01*
X120444285Y-89306666D01*
X120520476Y-89344761D01*
X120672857Y-89382857D01*
X120863333Y-89382857D01*
X121015714Y-89344761D01*
X121091904Y-89306666D01*
X121130000Y-89268571D01*
X121168095Y-89192380D01*
X121168095Y-88201904D02*
X121168095Y-88582857D01*
X120787142Y-88620952D01*
X120825238Y-88582857D01*
X120863333Y-88506666D01*
X120863333Y-88316190D01*
X120825238Y-88240000D01*
X120787142Y-88201904D01*
X120710952Y-88163809D01*
X120520476Y-88163809D01*
X120444285Y-88201904D01*
X120406190Y-88240000D01*
X120368095Y-88316190D01*
X120368095Y-88506666D01*
X120406190Y-88582857D01*
X120444285Y-88620952D01*
X121168095Y-87897142D02*
X121168095Y-87401904D01*
X120863333Y-87668571D01*
X120863333Y-87554285D01*
X120825238Y-87478095D01*
X120787142Y-87440000D01*
X120710952Y-87401904D01*
X120520476Y-87401904D01*
X120444285Y-87440000D01*
X120406190Y-87478095D01*
X120368095Y-87554285D01*
X120368095Y-87782857D01*
X120406190Y-87859047D01*
X120444285Y-87897142D01*
X120672857Y-87059047D02*
X120672857Y-86449523D01*
X120368095Y-85649523D02*
X120368095Y-86106666D01*
X120368095Y-85878095D02*
X121168095Y-85878095D01*
X121053809Y-85954285D01*
X120977619Y-86030476D01*
X120939523Y-86106666D01*
X120368095Y-84887619D02*
X120368095Y-85344761D01*
X120368095Y-85116190D02*
X121168095Y-85116190D01*
X121053809Y-85192380D01*
X120977619Y-85268571D01*
X120939523Y-85344761D01*
X119246666Y-99535238D02*
X119246666Y-99154285D01*
X119018095Y-99611428D02*
X119818095Y-99344761D01*
X119018095Y-99078095D01*
X119551428Y-98468571D02*
X119018095Y-98468571D01*
X119551428Y-98811428D02*
X119132380Y-98811428D01*
X119056190Y-98773333D01*
X119018095Y-98697142D01*
X119018095Y-98582857D01*
X119056190Y-98506666D01*
X119094285Y-98468571D01*
X119056190Y-98125714D02*
X119018095Y-98049523D01*
X119018095Y-97897142D01*
X119056190Y-97820952D01*
X119132380Y-97782857D01*
X119170476Y-97782857D01*
X119246666Y-97820952D01*
X119284761Y-97897142D01*
X119284761Y-98011428D01*
X119322857Y-98087619D01*
X119399047Y-98125714D01*
X119437142Y-98125714D01*
X119513333Y-98087619D01*
X119551428Y-98011428D01*
X119551428Y-97897142D01*
X119513333Y-97820952D01*
X119551428Y-97554285D02*
X119551428Y-97249523D01*
X119818095Y-97440000D02*
X119132380Y-97440000D01*
X119056190Y-97401904D01*
X119018095Y-97325714D01*
X119018095Y-97249523D01*
X119018095Y-96640000D02*
X119437142Y-96640000D01*
X119513333Y-96678095D01*
X119551428Y-96754285D01*
X119551428Y-96906666D01*
X119513333Y-96982857D01*
X119056190Y-96640000D02*
X119018095Y-96716190D01*
X119018095Y-96906666D01*
X119056190Y-96982857D01*
X119132380Y-97020952D01*
X119208571Y-97020952D01*
X119284761Y-96982857D01*
X119322857Y-96906666D01*
X119322857Y-96716190D01*
X119360952Y-96640000D01*
X119551428Y-95916190D02*
X119018095Y-95916190D01*
X119551428Y-96259047D02*
X119132380Y-96259047D01*
X119056190Y-96220952D01*
X119018095Y-96144761D01*
X119018095Y-96030476D01*
X119056190Y-95954285D01*
X119094285Y-95916190D01*
X119056190Y-95573333D02*
X119018095Y-95497142D01*
X119018095Y-95344761D01*
X119056190Y-95268571D01*
X119132380Y-95230476D01*
X119170476Y-95230476D01*
X119246666Y-95268571D01*
X119284761Y-95344761D01*
X119284761Y-95459047D01*
X119322857Y-95535238D01*
X119399047Y-95573333D01*
X119437142Y-95573333D01*
X119513333Y-95535238D01*
X119551428Y-95459047D01*
X119551428Y-95344761D01*
X119513333Y-95268571D01*
X119056190Y-94544761D02*
X119018095Y-94620952D01*
X119018095Y-94773333D01*
X119056190Y-94849523D01*
X119094285Y-94887619D01*
X119170476Y-94925714D01*
X119399047Y-94925714D01*
X119475238Y-94887619D01*
X119513333Y-94849523D01*
X119551428Y-94773333D01*
X119551428Y-94620952D01*
X119513333Y-94544761D01*
X119018095Y-94201904D02*
X119818095Y-94201904D01*
X119018095Y-93859047D02*
X119437142Y-93859047D01*
X119513333Y-93897142D01*
X119551428Y-93973333D01*
X119551428Y-94087619D01*
X119513333Y-94163809D01*
X119475238Y-94201904D01*
X119551428Y-93478095D02*
X118751428Y-93478095D01*
X119513333Y-93478095D02*
X119551428Y-93401904D01*
X119551428Y-93249523D01*
X119513333Y-93173333D01*
X119475238Y-93135238D01*
X119399047Y-93097142D01*
X119170476Y-93097142D01*
X119094285Y-93135238D01*
X119056190Y-93173333D01*
X119018095Y-93249523D01*
X119018095Y-93401904D01*
X119056190Y-93478095D01*
X119018095Y-92640000D02*
X119056190Y-92716190D01*
X119132380Y-92754285D01*
X119818095Y-92754285D01*
X119018095Y-91992380D02*
X119437142Y-91992380D01*
X119513333Y-92030476D01*
X119551428Y-92106666D01*
X119551428Y-92259047D01*
X119513333Y-92335238D01*
X119056190Y-91992380D02*
X119018095Y-92068571D01*
X119018095Y-92259047D01*
X119056190Y-92335238D01*
X119132380Y-92373333D01*
X119208571Y-92373333D01*
X119284761Y-92335238D01*
X119322857Y-92259047D01*
X119322857Y-92068571D01*
X119360952Y-91992380D01*
X119551428Y-91725714D02*
X119551428Y-91420952D01*
X119818095Y-91611428D02*
X119132380Y-91611428D01*
X119056190Y-91573333D01*
X119018095Y-91497142D01*
X119018095Y-91420952D01*
X119018095Y-91154285D02*
X119551428Y-91154285D01*
X119818095Y-91154285D02*
X119780000Y-91192380D01*
X119741904Y-91154285D01*
X119780000Y-91116190D01*
X119818095Y-91154285D01*
X119741904Y-91154285D01*
X119551428Y-90773333D02*
X119018095Y-90773333D01*
X119475238Y-90773333D02*
X119513333Y-90735238D01*
X119551428Y-90659047D01*
X119551428Y-90544761D01*
X119513333Y-90468571D01*
X119437142Y-90430476D01*
X119018095Y-90430476D01*
X119056190Y-89744761D02*
X119018095Y-89820952D01*
X119018095Y-89973333D01*
X119056190Y-90049523D01*
X119132380Y-90087619D01*
X119437142Y-90087619D01*
X119513333Y-90049523D01*
X119551428Y-89973333D01*
X119551428Y-89820952D01*
X119513333Y-89744761D01*
X119437142Y-89706666D01*
X119360952Y-89706666D01*
X119284761Y-90087619D01*
X119018095Y-88297142D02*
X119399047Y-88563809D01*
X119018095Y-88754285D02*
X119818095Y-88754285D01*
X119818095Y-88449523D01*
X119780000Y-88373333D01*
X119741904Y-88335238D01*
X119665714Y-88297142D01*
X119551428Y-88297142D01*
X119475238Y-88335238D01*
X119437142Y-88373333D01*
X119399047Y-88449523D01*
X119399047Y-88754285D01*
X119056190Y-87649523D02*
X119018095Y-87725714D01*
X119018095Y-87878095D01*
X119056190Y-87954285D01*
X119132380Y-87992380D01*
X119437142Y-87992380D01*
X119513333Y-87954285D01*
X119551428Y-87878095D01*
X119551428Y-87725714D01*
X119513333Y-87649523D01*
X119437142Y-87611428D01*
X119360952Y-87611428D01*
X119284761Y-87992380D01*
X119551428Y-87344761D02*
X119018095Y-87154285D01*
X119551428Y-86963809D01*
X119818095Y-85897142D02*
X119818095Y-85820952D01*
X119780000Y-85744761D01*
X119741904Y-85706666D01*
X119665714Y-85668571D01*
X119513333Y-85630476D01*
X119322857Y-85630476D01*
X119170476Y-85668571D01*
X119094285Y-85706666D01*
X119056190Y-85744761D01*
X119018095Y-85820952D01*
X119018095Y-85897142D01*
X119056190Y-85973333D01*
X119094285Y-86011428D01*
X119170476Y-86049523D01*
X119322857Y-86087619D01*
X119513333Y-86087619D01*
X119665714Y-86049523D01*
X119741904Y-86011428D01*
X119780000Y-85973333D01*
X119818095Y-85897142D01*
X119094285Y-85287619D02*
X119056190Y-85249523D01*
X119018095Y-85287619D01*
X119056190Y-85325714D01*
X119094285Y-85287619D01*
X119018095Y-85287619D01*
X119551428Y-84563809D02*
X119018095Y-84563809D01*
X119856190Y-84754285D02*
X119284761Y-84944761D01*
X119284761Y-84449523D01*
X119094285Y-84144761D02*
X119056190Y-84106666D01*
X119018095Y-84144761D01*
X119056190Y-84182857D01*
X119094285Y-84144761D01*
X119018095Y-84144761D01*
X119818095Y-83611428D02*
X119818095Y-83535238D01*
X119780000Y-83459047D01*
X119741904Y-83420952D01*
X119665714Y-83382857D01*
X119513333Y-83344761D01*
X119322857Y-83344761D01*
X119170476Y-83382857D01*
X119094285Y-83420952D01*
X119056190Y-83459047D01*
X119018095Y-83535238D01*
X119018095Y-83611428D01*
X119056190Y-83687619D01*
X119094285Y-83725714D01*
X119170476Y-83763809D01*
X119322857Y-83801904D01*
X119513333Y-83801904D01*
X119665714Y-83763809D01*
X119741904Y-83725714D01*
X119780000Y-83687619D01*
X119818095Y-83611428D01*
X117668095Y-105916190D02*
X118468095Y-105916190D01*
X118468095Y-105725714D01*
X118430000Y-105611428D01*
X118353809Y-105535238D01*
X118277619Y-105497142D01*
X118125238Y-105459047D01*
X118010952Y-105459047D01*
X117858571Y-105497142D01*
X117782380Y-105535238D01*
X117706190Y-105611428D01*
X117668095Y-105725714D01*
X117668095Y-105916190D01*
X117706190Y-104811428D02*
X117668095Y-104887619D01*
X117668095Y-105040000D01*
X117706190Y-105116190D01*
X117782380Y-105154285D01*
X118087142Y-105154285D01*
X118163333Y-105116190D01*
X118201428Y-105040000D01*
X118201428Y-104887619D01*
X118163333Y-104811428D01*
X118087142Y-104773333D01*
X118010952Y-104773333D01*
X117934761Y-105154285D01*
X117706190Y-104468571D02*
X117668095Y-104392380D01*
X117668095Y-104240000D01*
X117706190Y-104163809D01*
X117782380Y-104125714D01*
X117820476Y-104125714D01*
X117896666Y-104163809D01*
X117934761Y-104240000D01*
X117934761Y-104354285D01*
X117972857Y-104430476D01*
X118049047Y-104468571D01*
X118087142Y-104468571D01*
X118163333Y-104430476D01*
X118201428Y-104354285D01*
X118201428Y-104240000D01*
X118163333Y-104163809D01*
X117668095Y-103782857D02*
X118201428Y-103782857D01*
X118468095Y-103782857D02*
X118430000Y-103820952D01*
X118391904Y-103782857D01*
X118430000Y-103744761D01*
X118468095Y-103782857D01*
X118391904Y-103782857D01*
X118201428Y-103059047D02*
X117553809Y-103059047D01*
X117477619Y-103097142D01*
X117439523Y-103135238D01*
X117401428Y-103211428D01*
X117401428Y-103325714D01*
X117439523Y-103401904D01*
X117706190Y-103059047D02*
X117668095Y-103135238D01*
X117668095Y-103287619D01*
X117706190Y-103363809D01*
X117744285Y-103401904D01*
X117820476Y-103440000D01*
X118049047Y-103440000D01*
X118125238Y-103401904D01*
X118163333Y-103363809D01*
X118201428Y-103287619D01*
X118201428Y-103135238D01*
X118163333Y-103059047D01*
X118201428Y-102678095D02*
X117668095Y-102678095D01*
X118125238Y-102678095D02*
X118163333Y-102640000D01*
X118201428Y-102563809D01*
X118201428Y-102449523D01*
X118163333Y-102373333D01*
X118087142Y-102335238D01*
X117668095Y-102335238D01*
X117668095Y-101344761D02*
X118468095Y-101344761D01*
X118163333Y-101344761D02*
X118201428Y-101268571D01*
X118201428Y-101116190D01*
X118163333Y-101040000D01*
X118125238Y-101001904D01*
X118049047Y-100963809D01*
X117820476Y-100963809D01*
X117744285Y-101001904D01*
X117706190Y-101040000D01*
X117668095Y-101116190D01*
X117668095Y-101268571D01*
X117706190Y-101344761D01*
X118201428Y-100697142D02*
X117668095Y-100506666D01*
X118201428Y-100316190D02*
X117668095Y-100506666D01*
X117477619Y-100582857D01*
X117439523Y-100620952D01*
X117401428Y-100697142D01*
X118468095Y-99516190D02*
X118468095Y-99059047D01*
X117668095Y-99287619D02*
X118468095Y-99287619D01*
X117668095Y-98792380D02*
X118468095Y-98792380D01*
X117896666Y-98525714D01*
X118468095Y-98259047D01*
X117668095Y-98259047D01*
X118468095Y-97725714D02*
X118468095Y-97573333D01*
X118430000Y-97497142D01*
X118353809Y-97420952D01*
X118201428Y-97382857D01*
X117934761Y-97382857D01*
X117782380Y-97420952D01*
X117706190Y-97497142D01*
X117668095Y-97573333D01*
X117668095Y-97725714D01*
X117706190Y-97801904D01*
X117782380Y-97878095D01*
X117934761Y-97916190D01*
X118201428Y-97916190D01*
X118353809Y-97878095D01*
X118430000Y-97801904D01*
X118468095Y-97725714D01*
X117706190Y-97001904D02*
X117668095Y-97001904D01*
X117591904Y-97040000D01*
X117553809Y-97078095D01*
X117668095Y-95668571D02*
X117668095Y-96049523D01*
X118468095Y-96049523D01*
X117668095Y-95059047D02*
X118087142Y-95059047D01*
X118163333Y-95097142D01*
X118201428Y-95173333D01*
X118201428Y-95325714D01*
X118163333Y-95401904D01*
X117706190Y-95059047D02*
X117668095Y-95135238D01*
X117668095Y-95325714D01*
X117706190Y-95401904D01*
X117782380Y-95440000D01*
X117858571Y-95440000D01*
X117934761Y-95401904D01*
X117972857Y-95325714D01*
X117972857Y-95135238D01*
X118010952Y-95059047D01*
X118201428Y-94754285D02*
X117668095Y-94563809D01*
X118201428Y-94373333D02*
X117668095Y-94563809D01*
X117477619Y-94640000D01*
X117439523Y-94678095D01*
X117401428Y-94754285D01*
X117668095Y-93954285D02*
X117706190Y-94030476D01*
X117744285Y-94068571D01*
X117820476Y-94106666D01*
X118049047Y-94106666D01*
X118125238Y-94068571D01*
X118163333Y-94030476D01*
X118201428Y-93954285D01*
X118201428Y-93840000D01*
X118163333Y-93763809D01*
X118125238Y-93725714D01*
X118049047Y-93687619D01*
X117820476Y-93687619D01*
X117744285Y-93725714D01*
X117706190Y-93763809D01*
X117668095Y-93840000D01*
X117668095Y-93954285D01*
X118201428Y-93001904D02*
X117668095Y-93001904D01*
X118201428Y-93344761D02*
X117782380Y-93344761D01*
X117706190Y-93306666D01*
X117668095Y-93230476D01*
X117668095Y-93116190D01*
X117706190Y-93040000D01*
X117744285Y-93001904D01*
X118201428Y-92735238D02*
X118201428Y-92430476D01*
X118468095Y-92620952D02*
X117782380Y-92620952D01*
X117706190Y-92582857D01*
X117668095Y-92506666D01*
X117668095Y-92430476D01*
X117668095Y-91554285D02*
X118468095Y-91554285D01*
X118163333Y-91554285D02*
X118201428Y-91478095D01*
X118201428Y-91325714D01*
X118163333Y-91249523D01*
X118125238Y-91211428D01*
X118049047Y-91173333D01*
X117820476Y-91173333D01*
X117744285Y-91211428D01*
X117706190Y-91249523D01*
X117668095Y-91325714D01*
X117668095Y-91478095D01*
X117706190Y-91554285D01*
X118201428Y-90906666D02*
X117668095Y-90716190D01*
X118201428Y-90525714D02*
X117668095Y-90716190D01*
X117477619Y-90792380D01*
X117439523Y-90830476D01*
X117401428Y-90906666D01*
X117668095Y-89611428D02*
X118468095Y-89611428D01*
X117668095Y-89154285D01*
X118468095Y-89154285D01*
X117668095Y-88659047D02*
X117706190Y-88735238D01*
X117744285Y-88773333D01*
X117820476Y-88811428D01*
X118049047Y-88811428D01*
X118125238Y-88773333D01*
X118163333Y-88735238D01*
X118201428Y-88659047D01*
X118201428Y-88544761D01*
X118163333Y-88468571D01*
X118125238Y-88430476D01*
X118049047Y-88392380D01*
X117820476Y-88392380D01*
X117744285Y-88430476D01*
X117706190Y-88468571D01*
X117668095Y-88544761D01*
X117668095Y-88659047D01*
X117668095Y-88049523D02*
X118201428Y-88049523D01*
X118049047Y-88049523D02*
X118125238Y-88011428D01*
X118163333Y-87973333D01*
X118201428Y-87897142D01*
X118201428Y-87820952D01*
X117668095Y-87554285D02*
X118468095Y-87554285D01*
X118163333Y-87554285D02*
X118201428Y-87478095D01*
X118201428Y-87325714D01*
X118163333Y-87249523D01*
X118125238Y-87211428D01*
X118049047Y-87173333D01*
X117820476Y-87173333D01*
X117744285Y-87211428D01*
X117706190Y-87249523D01*
X117668095Y-87325714D01*
X117668095Y-87478095D01*
X117706190Y-87554285D01*
X117706190Y-86525714D02*
X117668095Y-86601904D01*
X117668095Y-86754285D01*
X117706190Y-86830476D01*
X117782380Y-86868571D01*
X118087142Y-86868571D01*
X118163333Y-86830476D01*
X118201428Y-86754285D01*
X118201428Y-86601904D01*
X118163333Y-86525714D01*
X118087142Y-86487619D01*
X118010952Y-86487619D01*
X117934761Y-86868571D01*
X117668095Y-86144761D02*
X118201428Y-86144761D01*
X118049047Y-86144761D02*
X118125238Y-86106666D01*
X118163333Y-86068571D01*
X118201428Y-85992380D01*
X118201428Y-85916190D01*
X118201428Y-85763809D02*
X118201428Y-85459047D01*
X118468095Y-85649523D02*
X117782380Y-85649523D01*
X117706190Y-85611428D01*
X117668095Y-85535238D01*
X117668095Y-85459047D01*
X117668095Y-84582857D02*
X118468095Y-84582857D01*
X118087142Y-84582857D02*
X118087142Y-84125714D01*
X117668095Y-84125714D02*
X118468095Y-84125714D01*
X117668095Y-83401904D02*
X118087142Y-83401904D01*
X118163333Y-83440000D01*
X118201428Y-83516190D01*
X118201428Y-83668571D01*
X118163333Y-83744761D01*
X117706190Y-83401904D02*
X117668095Y-83478095D01*
X117668095Y-83668571D01*
X117706190Y-83744761D01*
X117782380Y-83782857D01*
X117858571Y-83782857D01*
X117934761Y-83744761D01*
X117972857Y-83668571D01*
X117972857Y-83478095D01*
X118010952Y-83401904D01*
X117668095Y-83020952D02*
X118201428Y-83020952D01*
X118049047Y-83020952D02*
X118125238Y-82982857D01*
X118163333Y-82944761D01*
X118201428Y-82868571D01*
X118201428Y-82792380D01*
X117668095Y-82525714D02*
X118201428Y-82525714D01*
X118049047Y-82525714D02*
X118125238Y-82487619D01*
X118163333Y-82449523D01*
X118201428Y-82373333D01*
X118201428Y-82297142D01*
X117706190Y-81725714D02*
X117668095Y-81801904D01*
X117668095Y-81954285D01*
X117706190Y-82030476D01*
X117782380Y-82068571D01*
X118087142Y-82068571D01*
X118163333Y-82030476D01*
X118201428Y-81954285D01*
X118201428Y-81801904D01*
X118163333Y-81725714D01*
X118087142Y-81687619D01*
X118010952Y-81687619D01*
X117934761Y-82068571D01*
X117668095Y-81344761D02*
X118201428Y-81344761D01*
X118049047Y-81344761D02*
X118125238Y-81306666D01*
X118163333Y-81268571D01*
X118201428Y-81192380D01*
X118201428Y-81116190D01*
X118391904Y-80278095D02*
X118430000Y-80240000D01*
X118468095Y-80163809D01*
X118468095Y-79973333D01*
X118430000Y-79897142D01*
X118391904Y-79859047D01*
X118315714Y-79820952D01*
X118239523Y-79820952D01*
X118125238Y-79859047D01*
X117668095Y-80316190D01*
X117668095Y-79820952D01*
X118468095Y-79325714D02*
X118468095Y-79249523D01*
X118430000Y-79173333D01*
X118391904Y-79135238D01*
X118315714Y-79097142D01*
X118163333Y-79059047D01*
X117972857Y-79059047D01*
X117820476Y-79097142D01*
X117744285Y-79135238D01*
X117706190Y-79173333D01*
X117668095Y-79249523D01*
X117668095Y-79325714D01*
X117706190Y-79401904D01*
X117744285Y-79440000D01*
X117820476Y-79478095D01*
X117972857Y-79516190D01*
X118163333Y-79516190D01*
X118315714Y-79478095D01*
X118391904Y-79440000D01*
X118430000Y-79401904D01*
X118468095Y-79325714D01*
X117668095Y-78297142D02*
X117668095Y-78754285D01*
X117668095Y-78525714D02*
X118468095Y-78525714D01*
X118353809Y-78601904D01*
X118277619Y-78678095D01*
X118239523Y-78754285D01*
X117668095Y-77916190D02*
X117668095Y-77763809D01*
X117706190Y-77687619D01*
X117744285Y-77649523D01*
X117858571Y-77573333D01*
X118010952Y-77535238D01*
X118315714Y-77535238D01*
X118391904Y-77573333D01*
X118430000Y-77611428D01*
X118468095Y-77687619D01*
X118468095Y-77840000D01*
X118430000Y-77916190D01*
X118391904Y-77954285D01*
X118315714Y-77992380D01*
X118125238Y-77992380D01*
X118049047Y-77954285D01*
X118010952Y-77916190D01*
X117972857Y-77840000D01*
X117972857Y-77687619D01*
X118010952Y-77611428D01*
X118049047Y-77573333D01*
X118125238Y-77535238D01*
D12*
G36*
X164234090Y-79030348D02*
G01*
X164155546Y-79030778D01*
X164098702Y-79031942D01*
X164059895Y-79034207D01*
X164035462Y-79037940D01*
X164021738Y-79043506D01*
X164015060Y-79051273D01*
X164011764Y-79061605D01*
X164011444Y-79062943D01*
X164006438Y-79087079D01*
X163997171Y-79134701D01*
X163984608Y-79200741D01*
X163969713Y-79280128D01*
X163953449Y-79367796D01*
X163952881Y-79370875D01*
X163936590Y-79456789D01*
X163921348Y-79532696D01*
X163908139Y-79594045D01*
X163897946Y-79636282D01*
X163891752Y-79654855D01*
X163891457Y-79655184D01*
X163873212Y-79664253D01*
X163835595Y-79679367D01*
X163786729Y-79697262D01*
X163786457Y-79697358D01*
X163724907Y-79720493D01*
X163652343Y-79749965D01*
X163583943Y-79779597D01*
X163580706Y-79781062D01*
X163469298Y-79831626D01*
X163222601Y-79663160D01*
X163146923Y-79611803D01*
X163078369Y-79565889D01*
X163020912Y-79528030D01*
X162978524Y-79500837D01*
X162955175Y-79486921D01*
X162952958Y-79485889D01*
X162935990Y-79490484D01*
X162904299Y-79512655D01*
X162856648Y-79553447D01*
X162791802Y-79613905D01*
X162725603Y-79678227D01*
X162661786Y-79741612D01*
X162604671Y-79799451D01*
X162557695Y-79848175D01*
X162524297Y-79884210D01*
X162507915Y-79903984D01*
X162507306Y-79905002D01*
X162505495Y-79918572D01*
X162512317Y-79940733D01*
X162529460Y-79974478D01*
X162558607Y-80022800D01*
X162601445Y-80088692D01*
X162658552Y-80173517D01*
X162709234Y-80248177D01*
X162754539Y-80315140D01*
X162791850Y-80370516D01*
X162818548Y-80410420D01*
X162832015Y-80430962D01*
X162832863Y-80432356D01*
X162831219Y-80452038D01*
X162818755Y-80490293D01*
X162797952Y-80539889D01*
X162790538Y-80555728D01*
X162758186Y-80626290D01*
X162723672Y-80706353D01*
X162695635Y-80775629D01*
X162675432Y-80827045D01*
X162659385Y-80866119D01*
X162650112Y-80886541D01*
X162648959Y-80888114D01*
X162631904Y-80890721D01*
X162591702Y-80897863D01*
X162533698Y-80908523D01*
X162463237Y-80921685D01*
X162385665Y-80936333D01*
X162306328Y-80951449D01*
X162230569Y-80966018D01*
X162163736Y-80979022D01*
X162111172Y-80989445D01*
X162078224Y-80996270D01*
X162070143Y-80998199D01*
X162061795Y-81002962D01*
X162055494Y-81013718D01*
X162050955Y-81034098D01*
X162047896Y-81067734D01*
X162046033Y-81118255D01*
X162045082Y-81189292D01*
X162044760Y-81284476D01*
X162044743Y-81323492D01*
X162044743Y-81640799D01*
X162120943Y-81655839D01*
X162163337Y-81663995D01*
X162226600Y-81675899D01*
X162303038Y-81690116D01*
X162384957Y-81705210D01*
X162407600Y-81709355D01*
X162483194Y-81724053D01*
X162549047Y-81738505D01*
X162599634Y-81751375D01*
X162629426Y-81761322D01*
X162634388Y-81764287D01*
X162646574Y-81785283D01*
X162664047Y-81825967D01*
X162683423Y-81878322D01*
X162687266Y-81889600D01*
X162712661Y-81959523D01*
X162744183Y-82038418D01*
X162775031Y-82109266D01*
X162775183Y-82109595D01*
X162826553Y-82220733D01*
X162657601Y-82469253D01*
X162488648Y-82717772D01*
X162705571Y-82935058D01*
X162771181Y-82999726D01*
X162831021Y-83056733D01*
X162881733Y-83103033D01*
X162919954Y-83135584D01*
X162942325Y-83151343D01*
X162945534Y-83152343D01*
X162964374Y-83144469D01*
X163002820Y-83122578D01*
X163056670Y-83089267D01*
X163121724Y-83047131D01*
X163192060Y-82999943D01*
X163263445Y-82951810D01*
X163327092Y-82909928D01*
X163378959Y-82876871D01*
X163415005Y-82855218D01*
X163431133Y-82847543D01*
X163450811Y-82854037D01*
X163488125Y-82871150D01*
X163535379Y-82895326D01*
X163540388Y-82898013D01*
X163604023Y-82929927D01*
X163647659Y-82945579D01*
X163674798Y-82945745D01*
X163688943Y-82931204D01*
X163689025Y-82931000D01*
X163696095Y-82913779D01*
X163712958Y-82872899D01*
X163738305Y-82811525D01*
X163770829Y-82732819D01*
X163809222Y-82639947D01*
X163852178Y-82536072D01*
X163893778Y-82435502D01*
X163939496Y-82324516D01*
X163981474Y-82221703D01*
X164018452Y-82130215D01*
X164049173Y-82053201D01*
X164072378Y-81993815D01*
X164086810Y-81955209D01*
X164091257Y-81940800D01*
X164080104Y-81924272D01*
X164050931Y-81897930D01*
X164012029Y-81868887D01*
X163901243Y-81777039D01*
X163814649Y-81671759D01*
X163753284Y-81555266D01*
X163718185Y-81429776D01*
X163710392Y-81297507D01*
X163716057Y-81236457D01*
X163746922Y-81109795D01*
X163800080Y-80997941D01*
X163872233Y-80902001D01*
X163960083Y-80823076D01*
X164060335Y-80762270D01*
X164169690Y-80720687D01*
X164284853Y-80699428D01*
X164402525Y-80699599D01*
X164519410Y-80722301D01*
X164632211Y-80768638D01*
X164737631Y-80839713D01*
X164781632Y-80879911D01*
X164866021Y-80983129D01*
X164924778Y-81095925D01*
X164958296Y-81215010D01*
X164966965Y-81337095D01*
X164951177Y-81458893D01*
X164911322Y-81577116D01*
X164847793Y-81688475D01*
X164760979Y-81789684D01*
X164663971Y-81868887D01*
X164623563Y-81899162D01*
X164595018Y-81925219D01*
X164584743Y-81940825D01*
X164590123Y-81957843D01*
X164605425Y-81998500D01*
X164629388Y-82059642D01*
X164660756Y-82138119D01*
X164698268Y-82230780D01*
X164740667Y-82334472D01*
X164782337Y-82435526D01*
X164828310Y-82546607D01*
X164870893Y-82649541D01*
X164908779Y-82741165D01*
X164940660Y-82818316D01*
X164965229Y-82877831D01*
X164981180Y-82916544D01*
X164987090Y-82931000D01*
X165001052Y-82945685D01*
X165028060Y-82945642D01*
X165071587Y-82930099D01*
X165135110Y-82898284D01*
X165135612Y-82898013D01*
X165183440Y-82873323D01*
X165222103Y-82855338D01*
X165243905Y-82847614D01*
X165244867Y-82847543D01*
X165261279Y-82855378D01*
X165297513Y-82877165D01*
X165349526Y-82910328D01*
X165413275Y-82952291D01*
X165483940Y-82999943D01*
X165555884Y-83048191D01*
X165620726Y-83090151D01*
X165674265Y-83123227D01*
X165712303Y-83144821D01*
X165730467Y-83152343D01*
X165747192Y-83142457D01*
X165780820Y-83114826D01*
X165827990Y-83072495D01*
X165885342Y-83018505D01*
X165949516Y-82955899D01*
X165970503Y-82934983D01*
X166187501Y-82717623D01*
X166022332Y-82475220D01*
X165972136Y-82400781D01*
X165928081Y-82333972D01*
X165892638Y-82278665D01*
X165868281Y-82238729D01*
X165857478Y-82218036D01*
X165857162Y-82216563D01*
X165862857Y-82197058D01*
X165878174Y-82157822D01*
X165900463Y-82105430D01*
X165916107Y-82070355D01*
X165945359Y-82003201D01*
X165972906Y-81935358D01*
X165994263Y-81878034D01*
X166000065Y-81860572D01*
X166016548Y-81813938D01*
X166032660Y-81777905D01*
X166041510Y-81764287D01*
X166061040Y-81755952D01*
X166103666Y-81744137D01*
X166163855Y-81730181D01*
X166236078Y-81715422D01*
X166268400Y-81709355D01*
X166350478Y-81694273D01*
X166429205Y-81679669D01*
X166496891Y-81666980D01*
X166545840Y-81657642D01*
X166555057Y-81655839D01*
X166631257Y-81640799D01*
X166631257Y-81323492D01*
X166631086Y-81219154D01*
X166630384Y-81140213D01*
X166628866Y-81083038D01*
X166626251Y-81043999D01*
X166622254Y-81019465D01*
X166616591Y-81005805D01*
X166608980Y-80999389D01*
X166605857Y-80998199D01*
X166587022Y-80993980D01*
X166545412Y-80985562D01*
X166486370Y-80973961D01*
X166415243Y-80960195D01*
X166337375Y-80945280D01*
X166258113Y-80930232D01*
X166182802Y-80916069D01*
X166116787Y-80903806D01*
X166065413Y-80894461D01*
X166034025Y-80889050D01*
X166027041Y-80888114D01*
X166020715Y-80875596D01*
X166006710Y-80842246D01*
X165987645Y-80794377D01*
X165980366Y-80775629D01*
X165951004Y-80703195D01*
X165916429Y-80623170D01*
X165885463Y-80555728D01*
X165862677Y-80504159D01*
X165847518Y-80461785D01*
X165842458Y-80435834D01*
X165843264Y-80432356D01*
X165853959Y-80415936D01*
X165878380Y-80379417D01*
X165913905Y-80326687D01*
X165957913Y-80261635D01*
X166007783Y-80188151D01*
X166017644Y-80173645D01*
X166075508Y-80087704D01*
X166118044Y-80022261D01*
X166146946Y-79974304D01*
X166163910Y-79940820D01*
X166170633Y-79918795D01*
X166168810Y-79905217D01*
X166168764Y-79905131D01*
X166154414Y-79887297D01*
X166122677Y-79852817D01*
X166076990Y-79805268D01*
X166020796Y-79748222D01*
X165957532Y-79685255D01*
X165950398Y-79678227D01*
X165870670Y-79601020D01*
X165809143Y-79544330D01*
X165764579Y-79507110D01*
X165735743Y-79488315D01*
X165723042Y-79485889D01*
X165704506Y-79496471D01*
X165666039Y-79520916D01*
X165611614Y-79556612D01*
X165545202Y-79600947D01*
X165470775Y-79651311D01*
X165453399Y-79663160D01*
X165206703Y-79831626D01*
X165095294Y-79781062D01*
X165027543Y-79751595D01*
X164954817Y-79721959D01*
X164892297Y-79698330D01*
X164889543Y-79697358D01*
X164840640Y-79679457D01*
X164802943Y-79664320D01*
X164784575Y-79655210D01*
X164784544Y-79655184D01*
X164778715Y-79638717D01*
X164768808Y-79598219D01*
X164755805Y-79538242D01*
X164740691Y-79463340D01*
X164724448Y-79378064D01*
X164723119Y-79370875D01*
X164706825Y-79283014D01*
X164691867Y-79203260D01*
X164679209Y-79136681D01*
X164669814Y-79088347D01*
X164664646Y-79063325D01*
X164664556Y-79062943D01*
X164661411Y-79052299D01*
X164655296Y-79044262D01*
X164642547Y-79038467D01*
X164619500Y-79034547D01*
X164582491Y-79032135D01*
X164527856Y-79030865D01*
X164451933Y-79030371D01*
X164351056Y-79030286D01*
X164338000Y-79030286D01*
X164234090Y-79030348D01*
G37*
X164234090Y-79030348D02*
X164155546Y-79030778D01*
X164098702Y-79031942D01*
X164059895Y-79034207D01*
X164035462Y-79037940D01*
X164021738Y-79043506D01*
X164015060Y-79051273D01*
X164011764Y-79061605D01*
X164011444Y-79062943D01*
X164006438Y-79087079D01*
X163997171Y-79134701D01*
X163984608Y-79200741D01*
X163969713Y-79280128D01*
X163953449Y-79367796D01*
X163952881Y-79370875D01*
X163936590Y-79456789D01*
X163921348Y-79532696D01*
X163908139Y-79594045D01*
X163897946Y-79636282D01*
X163891752Y-79654855D01*
X163891457Y-79655184D01*
X163873212Y-79664253D01*
X163835595Y-79679367D01*
X163786729Y-79697262D01*
X163786457Y-79697358D01*
X163724907Y-79720493D01*
X163652343Y-79749965D01*
X163583943Y-79779597D01*
X163580706Y-79781062D01*
X163469298Y-79831626D01*
X163222601Y-79663160D01*
X163146923Y-79611803D01*
X163078369Y-79565889D01*
X163020912Y-79528030D01*
X162978524Y-79500837D01*
X162955175Y-79486921D01*
X162952958Y-79485889D01*
X162935990Y-79490484D01*
X162904299Y-79512655D01*
X162856648Y-79553447D01*
X162791802Y-79613905D01*
X162725603Y-79678227D01*
X162661786Y-79741612D01*
X162604671Y-79799451D01*
X162557695Y-79848175D01*
X162524297Y-79884210D01*
X162507915Y-79903984D01*
X162507306Y-79905002D01*
X162505495Y-79918572D01*
X162512317Y-79940733D01*
X162529460Y-79974478D01*
X162558607Y-80022800D01*
X162601445Y-80088692D01*
X162658552Y-80173517D01*
X162709234Y-80248177D01*
X162754539Y-80315140D01*
X162791850Y-80370516D01*
X162818548Y-80410420D01*
X162832015Y-80430962D01*
X162832863Y-80432356D01*
X162831219Y-80452038D01*
X162818755Y-80490293D01*
X162797952Y-80539889D01*
X162790538Y-80555728D01*
X162758186Y-80626290D01*
X162723672Y-80706353D01*
X162695635Y-80775629D01*
X162675432Y-80827045D01*
X162659385Y-80866119D01*
X162650112Y-80886541D01*
X162648959Y-80888114D01*
X162631904Y-80890721D01*
X162591702Y-80897863D01*
X162533698Y-80908523D01*
X162463237Y-80921685D01*
X162385665Y-80936333D01*
X162306328Y-80951449D01*
X162230569Y-80966018D01*
X162163736Y-80979022D01*
X162111172Y-80989445D01*
X162078224Y-80996270D01*
X162070143Y-80998199D01*
X162061795Y-81002962D01*
X162055494Y-81013718D01*
X162050955Y-81034098D01*
X162047896Y-81067734D01*
X162046033Y-81118255D01*
X162045082Y-81189292D01*
X162044760Y-81284476D01*
X162044743Y-81323492D01*
X162044743Y-81640799D01*
X162120943Y-81655839D01*
X162163337Y-81663995D01*
X162226600Y-81675899D01*
X162303038Y-81690116D01*
X162384957Y-81705210D01*
X162407600Y-81709355D01*
X162483194Y-81724053D01*
X162549047Y-81738505D01*
X162599634Y-81751375D01*
X162629426Y-81761322D01*
X162634388Y-81764287D01*
X162646574Y-81785283D01*
X162664047Y-81825967D01*
X162683423Y-81878322D01*
X162687266Y-81889600D01*
X162712661Y-81959523D01*
X162744183Y-82038418D01*
X162775031Y-82109266D01*
X162775183Y-82109595D01*
X162826553Y-82220733D01*
X162657601Y-82469253D01*
X162488648Y-82717772D01*
X162705571Y-82935058D01*
X162771181Y-82999726D01*
X162831021Y-83056733D01*
X162881733Y-83103033D01*
X162919954Y-83135584D01*
X162942325Y-83151343D01*
X162945534Y-83152343D01*
X162964374Y-83144469D01*
X163002820Y-83122578D01*
X163056670Y-83089267D01*
X163121724Y-83047131D01*
X163192060Y-82999943D01*
X163263445Y-82951810D01*
X163327092Y-82909928D01*
X163378959Y-82876871D01*
X163415005Y-82855218D01*
X163431133Y-82847543D01*
X163450811Y-82854037D01*
X163488125Y-82871150D01*
X163535379Y-82895326D01*
X163540388Y-82898013D01*
X163604023Y-82929927D01*
X163647659Y-82945579D01*
X163674798Y-82945745D01*
X163688943Y-82931204D01*
X163689025Y-82931000D01*
X163696095Y-82913779D01*
X163712958Y-82872899D01*
X163738305Y-82811525D01*
X163770829Y-82732819D01*
X163809222Y-82639947D01*
X163852178Y-82536072D01*
X163893778Y-82435502D01*
X163939496Y-82324516D01*
X163981474Y-82221703D01*
X164018452Y-82130215D01*
X164049173Y-82053201D01*
X164072378Y-81993815D01*
X164086810Y-81955209D01*
X164091257Y-81940800D01*
X164080104Y-81924272D01*
X164050931Y-81897930D01*
X164012029Y-81868887D01*
X163901243Y-81777039D01*
X163814649Y-81671759D01*
X163753284Y-81555266D01*
X163718185Y-81429776D01*
X163710392Y-81297507D01*
X163716057Y-81236457D01*
X163746922Y-81109795D01*
X163800080Y-80997941D01*
X163872233Y-80902001D01*
X163960083Y-80823076D01*
X164060335Y-80762270D01*
X164169690Y-80720687D01*
X164284853Y-80699428D01*
X164402525Y-80699599D01*
X164519410Y-80722301D01*
X164632211Y-80768638D01*
X164737631Y-80839713D01*
X164781632Y-80879911D01*
X164866021Y-80983129D01*
X164924778Y-81095925D01*
X164958296Y-81215010D01*
X164966965Y-81337095D01*
X164951177Y-81458893D01*
X164911322Y-81577116D01*
X164847793Y-81688475D01*
X164760979Y-81789684D01*
X164663971Y-81868887D01*
X164623563Y-81899162D01*
X164595018Y-81925219D01*
X164584743Y-81940825D01*
X164590123Y-81957843D01*
X164605425Y-81998500D01*
X164629388Y-82059642D01*
X164660756Y-82138119D01*
X164698268Y-82230780D01*
X164740667Y-82334472D01*
X164782337Y-82435526D01*
X164828310Y-82546607D01*
X164870893Y-82649541D01*
X164908779Y-82741165D01*
X164940660Y-82818316D01*
X164965229Y-82877831D01*
X164981180Y-82916544D01*
X164987090Y-82931000D01*
X165001052Y-82945685D01*
X165028060Y-82945642D01*
X165071587Y-82930099D01*
X165135110Y-82898284D01*
X165135612Y-82898013D01*
X165183440Y-82873323D01*
X165222103Y-82855338D01*
X165243905Y-82847614D01*
X165244867Y-82847543D01*
X165261279Y-82855378D01*
X165297513Y-82877165D01*
X165349526Y-82910328D01*
X165413275Y-82952291D01*
X165483940Y-82999943D01*
X165555884Y-83048191D01*
X165620726Y-83090151D01*
X165674265Y-83123227D01*
X165712303Y-83144821D01*
X165730467Y-83152343D01*
X165747192Y-83142457D01*
X165780820Y-83114826D01*
X165827990Y-83072495D01*
X165885342Y-83018505D01*
X165949516Y-82955899D01*
X165970503Y-82934983D01*
X166187501Y-82717623D01*
X166022332Y-82475220D01*
X165972136Y-82400781D01*
X165928081Y-82333972D01*
X165892638Y-82278665D01*
X165868281Y-82238729D01*
X165857478Y-82218036D01*
X165857162Y-82216563D01*
X165862857Y-82197058D01*
X165878174Y-82157822D01*
X165900463Y-82105430D01*
X165916107Y-82070355D01*
X165945359Y-82003201D01*
X165972906Y-81935358D01*
X165994263Y-81878034D01*
X166000065Y-81860572D01*
X166016548Y-81813938D01*
X166032660Y-81777905D01*
X166041510Y-81764287D01*
X166061040Y-81755952D01*
X166103666Y-81744137D01*
X166163855Y-81730181D01*
X166236078Y-81715422D01*
X166268400Y-81709355D01*
X166350478Y-81694273D01*
X166429205Y-81679669D01*
X166496891Y-81666980D01*
X166545840Y-81657642D01*
X166555057Y-81655839D01*
X166631257Y-81640799D01*
X166631257Y-81323492D01*
X166631086Y-81219154D01*
X166630384Y-81140213D01*
X166628866Y-81083038D01*
X166626251Y-81043999D01*
X166622254Y-81019465D01*
X166616591Y-81005805D01*
X166608980Y-80999389D01*
X166605857Y-80998199D01*
X166587022Y-80993980D01*
X166545412Y-80985562D01*
X166486370Y-80973961D01*
X166415243Y-80960195D01*
X166337375Y-80945280D01*
X166258113Y-80930232D01*
X166182802Y-80916069D01*
X166116787Y-80903806D01*
X166065413Y-80894461D01*
X166034025Y-80889050D01*
X166027041Y-80888114D01*
X166020715Y-80875596D01*
X166006710Y-80842246D01*
X165987645Y-80794377D01*
X165980366Y-80775629D01*
X165951004Y-80703195D01*
X165916429Y-80623170D01*
X165885463Y-80555728D01*
X165862677Y-80504159D01*
X165847518Y-80461785D01*
X165842458Y-80435834D01*
X165843264Y-80432356D01*
X165853959Y-80415936D01*
X165878380Y-80379417D01*
X165913905Y-80326687D01*
X165957913Y-80261635D01*
X166007783Y-80188151D01*
X166017644Y-80173645D01*
X166075508Y-80087704D01*
X166118044Y-80022261D01*
X166146946Y-79974304D01*
X166163910Y-79940820D01*
X166170633Y-79918795D01*
X166168810Y-79905217D01*
X166168764Y-79905131D01*
X166154414Y-79887297D01*
X166122677Y-79852817D01*
X166076990Y-79805268D01*
X166020796Y-79748222D01*
X165957532Y-79685255D01*
X165950398Y-79678227D01*
X165870670Y-79601020D01*
X165809143Y-79544330D01*
X165764579Y-79507110D01*
X165735743Y-79488315D01*
X165723042Y-79485889D01*
X165704506Y-79496471D01*
X165666039Y-79520916D01*
X165611614Y-79556612D01*
X165545202Y-79600947D01*
X165470775Y-79651311D01*
X165453399Y-79663160D01*
X165206703Y-79831626D01*
X165095294Y-79781062D01*
X165027543Y-79751595D01*
X164954817Y-79721959D01*
X164892297Y-79698330D01*
X164889543Y-79697358D01*
X164840640Y-79679457D01*
X164802943Y-79664320D01*
X164784575Y-79655210D01*
X164784544Y-79655184D01*
X164778715Y-79638717D01*
X164768808Y-79598219D01*
X164755805Y-79538242D01*
X164740691Y-79463340D01*
X164724448Y-79378064D01*
X164723119Y-79370875D01*
X164706825Y-79283014D01*
X164691867Y-79203260D01*
X164679209Y-79136681D01*
X164669814Y-79088347D01*
X164664646Y-79063325D01*
X164664556Y-79062943D01*
X164661411Y-79052299D01*
X164655296Y-79044262D01*
X164642547Y-79038467D01*
X164619500Y-79034547D01*
X164582491Y-79032135D01*
X164527856Y-79030865D01*
X164451933Y-79030371D01*
X164351056Y-79030286D01*
X164338000Y-79030286D01*
X164234090Y-79030348D01*
G36*
X161184405Y-83754966D02*
G01*
X161126979Y-83792497D01*
X161099281Y-83826096D01*
X161077338Y-83887064D01*
X161075595Y-83935308D01*
X161079543Y-83999816D01*
X161228314Y-84064934D01*
X161300651Y-84098202D01*
X161347916Y-84124964D01*
X161372493Y-84148144D01*
X161376763Y-84170667D01*
X161363111Y-84195455D01*
X161348057Y-84211886D01*
X161304254Y-84238235D01*
X161256611Y-84240081D01*
X161212855Y-84219546D01*
X161180711Y-84178752D01*
X161174962Y-84164347D01*
X161147424Y-84119356D01*
X161115742Y-84100182D01*
X161072286Y-84083779D01*
X161072286Y-84145966D01*
X161076128Y-84188283D01*
X161091177Y-84223969D01*
X161122720Y-84264943D01*
X161127408Y-84270267D01*
X161162494Y-84306720D01*
X161192653Y-84326283D01*
X161230385Y-84335283D01*
X161261665Y-84338230D01*
X161317615Y-84338965D01*
X161357445Y-84329660D01*
X161382292Y-84315846D01*
X161421344Y-84285467D01*
X161448375Y-84252613D01*
X161465483Y-84211294D01*
X161474762Y-84155521D01*
X161478307Y-84079305D01*
X161478590Y-84040622D01*
X161477628Y-83994247D01*
X161389993Y-83994247D01*
X161388977Y-84019126D01*
X161386444Y-84023200D01*
X161369726Y-84017665D01*
X161333751Y-84003017D01*
X161285669Y-83982190D01*
X161275614Y-83977714D01*
X161214848Y-83946814D01*
X161181368Y-83919657D01*
X161174010Y-83894220D01*
X161191609Y-83868481D01*
X161206144Y-83857109D01*
X161258590Y-83834364D01*
X161307678Y-83838122D01*
X161348773Y-83865884D01*
X161377242Y-83915152D01*
X161386369Y-83954257D01*
X161389993Y-83994247D01*
X161477628Y-83994247D01*
X161476715Y-83950249D01*
X161469804Y-83883384D01*
X161456116Y-83834695D01*
X161433904Y-83798849D01*
X161401426Y-83770513D01*
X161387267Y-83761355D01*
X161322947Y-83737507D01*
X161252527Y-83736006D01*
X161184405Y-83754966D01*
G37*
X161184405Y-83754966D02*
X161126979Y-83792497D01*
X161099281Y-83826096D01*
X161077338Y-83887064D01*
X161075595Y-83935308D01*
X161079543Y-83999816D01*
X161228314Y-84064934D01*
X161300651Y-84098202D01*
X161347916Y-84124964D01*
X161372493Y-84148144D01*
X161376763Y-84170667D01*
X161363111Y-84195455D01*
X161348057Y-84211886D01*
X161304254Y-84238235D01*
X161256611Y-84240081D01*
X161212855Y-84219546D01*
X161180711Y-84178752D01*
X161174962Y-84164347D01*
X161147424Y-84119356D01*
X161115742Y-84100182D01*
X161072286Y-84083779D01*
X161072286Y-84145966D01*
X161076128Y-84188283D01*
X161091177Y-84223969D01*
X161122720Y-84264943D01*
X161127408Y-84270267D01*
X161162494Y-84306720D01*
X161192653Y-84326283D01*
X161230385Y-84335283D01*
X161261665Y-84338230D01*
X161317615Y-84338965D01*
X161357445Y-84329660D01*
X161382292Y-84315846D01*
X161421344Y-84285467D01*
X161448375Y-84252613D01*
X161465483Y-84211294D01*
X161474762Y-84155521D01*
X161478307Y-84079305D01*
X161478590Y-84040622D01*
X161477628Y-83994247D01*
X161389993Y-83994247D01*
X161388977Y-84019126D01*
X161386444Y-84023200D01*
X161369726Y-84017665D01*
X161333751Y-84003017D01*
X161285669Y-83982190D01*
X161275614Y-83977714D01*
X161214848Y-83946814D01*
X161181368Y-83919657D01*
X161174010Y-83894220D01*
X161191609Y-83868481D01*
X161206144Y-83857109D01*
X161258590Y-83834364D01*
X161307678Y-83838122D01*
X161348773Y-83865884D01*
X161377242Y-83915152D01*
X161386369Y-83954257D01*
X161389993Y-83994247D01*
X161477628Y-83994247D01*
X161476715Y-83950249D01*
X161469804Y-83883384D01*
X161456116Y-83834695D01*
X161433904Y-83798849D01*
X161401426Y-83770513D01*
X161387267Y-83761355D01*
X161322947Y-83737507D01*
X161252527Y-83736006D01*
X161184405Y-83754966D01*
G36*
X161685400Y-83746752D02*
G01*
X161668052Y-83754334D01*
X161626644Y-83787128D01*
X161591235Y-83834547D01*
X161569336Y-83885151D01*
X161565771Y-83910098D01*
X161577721Y-83944927D01*
X161603933Y-83963357D01*
X161632036Y-83974516D01*
X161644905Y-83976572D01*
X161651171Y-83961649D01*
X161663544Y-83929175D01*
X161668972Y-83914502D01*
X161699410Y-83863744D01*
X161743480Y-83838427D01*
X161799990Y-83839206D01*
X161804175Y-83840203D01*
X161834345Y-83854507D01*
X161856524Y-83882393D01*
X161871673Y-83927287D01*
X161880750Y-83992615D01*
X161884714Y-84081804D01*
X161885086Y-84129261D01*
X161885270Y-84204071D01*
X161886478Y-84255069D01*
X161889691Y-84287471D01*
X161895891Y-84306495D01*
X161906060Y-84317356D01*
X161921181Y-84325272D01*
X161922054Y-84325670D01*
X161951172Y-84337981D01*
X161965597Y-84342514D01*
X161967814Y-84328809D01*
X161969711Y-84290925D01*
X161971153Y-84233715D01*
X161972002Y-84162027D01*
X161972171Y-84109565D01*
X161971308Y-84008047D01*
X161967930Y-83931032D01*
X161960858Y-83874023D01*
X161948912Y-83832526D01*
X161930910Y-83802043D01*
X161905673Y-83778080D01*
X161880753Y-83761355D01*
X161820829Y-83739097D01*
X161751089Y-83734076D01*
X161685400Y-83746752D01*
G37*
X161685400Y-83746752D02*
X161668052Y-83754334D01*
X161626644Y-83787128D01*
X161591235Y-83834547D01*
X161569336Y-83885151D01*
X161565771Y-83910098D01*
X161577721Y-83944927D01*
X161603933Y-83963357D01*
X161632036Y-83974516D01*
X161644905Y-83976572D01*
X161651171Y-83961649D01*
X161663544Y-83929175D01*
X161668972Y-83914502D01*
X161699410Y-83863744D01*
X161743480Y-83838427D01*
X161799990Y-83839206D01*
X161804175Y-83840203D01*
X161834345Y-83854507D01*
X161856524Y-83882393D01*
X161871673Y-83927287D01*
X161880750Y-83992615D01*
X161884714Y-84081804D01*
X161885086Y-84129261D01*
X161885270Y-84204071D01*
X161886478Y-84255069D01*
X161889691Y-84287471D01*
X161895891Y-84306495D01*
X161906060Y-84317356D01*
X161921181Y-84325272D01*
X161922054Y-84325670D01*
X161951172Y-84337981D01*
X161965597Y-84342514D01*
X161967814Y-84328809D01*
X161969711Y-84290925D01*
X161971153Y-84233715D01*
X161972002Y-84162027D01*
X161972171Y-84109565D01*
X161971308Y-84008047D01*
X161967930Y-83931032D01*
X161960858Y-83874023D01*
X161948912Y-83832526D01*
X161930910Y-83802043D01*
X161905673Y-83778080D01*
X161880753Y-83761355D01*
X161820829Y-83739097D01*
X161751089Y-83734076D01*
X161685400Y-83746752D01*
G36*
X162193124Y-83744335D02*
G01*
X162151333Y-83763344D01*
X162118531Y-83786378D01*
X162094497Y-83812133D01*
X162077903Y-83845358D01*
X162067423Y-83890800D01*
X162061729Y-83953207D01*
X162059493Y-84037327D01*
X162059257Y-84092721D01*
X162059257Y-84308826D01*
X162096226Y-84325670D01*
X162125344Y-84337981D01*
X162139769Y-84342514D01*
X162142528Y-84329025D01*
X162144718Y-84292653D01*
X162146058Y-84239542D01*
X162146343Y-84197372D01*
X162147566Y-84136447D01*
X162150864Y-84088115D01*
X162155679Y-84058518D01*
X162159504Y-84052229D01*
X162185217Y-84058652D01*
X162225582Y-84075125D01*
X162272321Y-84097458D01*
X162317155Y-84121457D01*
X162351807Y-84142930D01*
X162367998Y-84157685D01*
X162368062Y-84157845D01*
X162366670Y-84185152D01*
X162354182Y-84211219D01*
X162332257Y-84232392D01*
X162300257Y-84239474D01*
X162272908Y-84238649D01*
X162234174Y-84238042D01*
X162213842Y-84247116D01*
X162201631Y-84271092D01*
X162200091Y-84275613D01*
X162194797Y-84309806D01*
X162208953Y-84330568D01*
X162245852Y-84340462D01*
X162285711Y-84342292D01*
X162357438Y-84328727D01*
X162394568Y-84309355D01*
X162440424Y-84263845D01*
X162464744Y-84207983D01*
X162466927Y-84148957D01*
X162446371Y-84093953D01*
X162415451Y-84059486D01*
X162384580Y-84040189D01*
X162336058Y-84015759D01*
X162279515Y-83990985D01*
X162270090Y-83987199D01*
X162207981Y-83959791D01*
X162172178Y-83935634D01*
X162160663Y-83911619D01*
X162171420Y-83884635D01*
X162189886Y-83863543D01*
X162233531Y-83837572D01*
X162281554Y-83835624D01*
X162325594Y-83855637D01*
X162357291Y-83895551D01*
X162361451Y-83905848D01*
X162385673Y-83943724D01*
X162421035Y-83971842D01*
X162465657Y-83994917D01*
X162465657Y-83929485D01*
X162463031Y-83889506D01*
X162451770Y-83857997D01*
X162426801Y-83824378D01*
X162402831Y-83798484D01*
X162365559Y-83761817D01*
X162336599Y-83742121D01*
X162305495Y-83734220D01*
X162270287Y-83732914D01*
X162193124Y-83744335D01*
G37*
X162193124Y-83744335D02*
X162151333Y-83763344D01*
X162118531Y-83786378D01*
X162094497Y-83812133D01*
X162077903Y-83845358D01*
X162067423Y-83890800D01*
X162061729Y-83953207D01*
X162059493Y-84037327D01*
X162059257Y-84092721D01*
X162059257Y-84308826D01*
X162096226Y-84325670D01*
X162125344Y-84337981D01*
X162139769Y-84342514D01*
X162142528Y-84329025D01*
X162144718Y-84292653D01*
X162146058Y-84239542D01*
X162146343Y-84197372D01*
X162147566Y-84136447D01*
X162150864Y-84088115D01*
X162155679Y-84058518D01*
X162159504Y-84052229D01*
X162185217Y-84058652D01*
X162225582Y-84075125D01*
X162272321Y-84097458D01*
X162317155Y-84121457D01*
X162351807Y-84142930D01*
X162367998Y-84157685D01*
X162368062Y-84157845D01*
X162366670Y-84185152D01*
X162354182Y-84211219D01*
X162332257Y-84232392D01*
X162300257Y-84239474D01*
X162272908Y-84238649D01*
X162234174Y-84238042D01*
X162213842Y-84247116D01*
X162201631Y-84271092D01*
X162200091Y-84275613D01*
X162194797Y-84309806D01*
X162208953Y-84330568D01*
X162245852Y-84340462D01*
X162285711Y-84342292D01*
X162357438Y-84328727D01*
X162394568Y-84309355D01*
X162440424Y-84263845D01*
X162464744Y-84207983D01*
X162466927Y-84148957D01*
X162446371Y-84093953D01*
X162415451Y-84059486D01*
X162384580Y-84040189D01*
X162336058Y-84015759D01*
X162279515Y-83990985D01*
X162270090Y-83987199D01*
X162207981Y-83959791D01*
X162172178Y-83935634D01*
X162160663Y-83911619D01*
X162171420Y-83884635D01*
X162189886Y-83863543D01*
X162233531Y-83837572D01*
X162281554Y-83835624D01*
X162325594Y-83855637D01*
X162357291Y-83895551D01*
X162361451Y-83905848D01*
X162385673Y-83943724D01*
X162421035Y-83971842D01*
X162465657Y-83994917D01*
X162465657Y-83929485D01*
X162463031Y-83889506D01*
X162451770Y-83857997D01*
X162426801Y-83824378D01*
X162402831Y-83798484D01*
X162365559Y-83761817D01*
X162336599Y-83742121D01*
X162305495Y-83734220D01*
X162270287Y-83732914D01*
X162193124Y-83744335D01*
G36*
X162558167Y-83746663D02*
G01*
X162555952Y-83784850D01*
X162554216Y-83842886D01*
X162553101Y-83916180D01*
X162552743Y-83993055D01*
X162552743Y-84253196D01*
X162598674Y-84299127D01*
X162630325Y-84327429D01*
X162658110Y-84338893D01*
X162696085Y-84338168D01*
X162711160Y-84336321D01*
X162758274Y-84330948D01*
X162797244Y-84327869D01*
X162806743Y-84327585D01*
X162838767Y-84329445D01*
X162884568Y-84334114D01*
X162902326Y-84336321D01*
X162945943Y-84339735D01*
X162975255Y-84332320D01*
X163004320Y-84309427D01*
X163014812Y-84299127D01*
X163060743Y-84253196D01*
X163060743Y-83766602D01*
X163023774Y-83749758D01*
X162991941Y-83737282D01*
X162973317Y-83732914D01*
X162968542Y-83746718D01*
X162964079Y-83785286D01*
X162960225Y-83844356D01*
X162957278Y-83919663D01*
X162955857Y-83983286D01*
X162951886Y-84233657D01*
X162917241Y-84238556D01*
X162885732Y-84235131D01*
X162870292Y-84224041D01*
X162865977Y-84203308D01*
X162862292Y-84159145D01*
X162859531Y-84097146D01*
X162857988Y-84022909D01*
X162857765Y-83984706D01*
X162857543Y-83764783D01*
X162811834Y-83748849D01*
X162779482Y-83738015D01*
X162761885Y-83732962D01*
X162761377Y-83732914D01*
X162759612Y-83746648D01*
X162757671Y-83784730D01*
X162755718Y-83842482D01*
X162753916Y-83915227D01*
X162752657Y-83983286D01*
X162748686Y-84233657D01*
X162661600Y-84233657D01*
X162657604Y-84005240D01*
X162653608Y-83776822D01*
X162611153Y-83754868D01*
X162579808Y-83739793D01*
X162561256Y-83732951D01*
X162560721Y-83732914D01*
X162558167Y-83746663D01*
G37*
X162558167Y-83746663D02*
X162555952Y-83784850D01*
X162554216Y-83842886D01*
X162553101Y-83916180D01*
X162552743Y-83993055D01*
X162552743Y-84253196D01*
X162598674Y-84299127D01*
X162630325Y-84327429D01*
X162658110Y-84338893D01*
X162696085Y-84338168D01*
X162711160Y-84336321D01*
X162758274Y-84330948D01*
X162797244Y-84327869D01*
X162806743Y-84327585D01*
X162838767Y-84329445D01*
X162884568Y-84334114D01*
X162902326Y-84336321D01*
X162945943Y-84339735D01*
X162975255Y-84332320D01*
X163004320Y-84309427D01*
X163014812Y-84299127D01*
X163060743Y-84253196D01*
X163060743Y-83766602D01*
X163023774Y-83749758D01*
X162991941Y-83737282D01*
X162973317Y-83732914D01*
X162968542Y-83746718D01*
X162964079Y-83785286D01*
X162960225Y-83844356D01*
X162957278Y-83919663D01*
X162955857Y-83983286D01*
X162951886Y-84233657D01*
X162917241Y-84238556D01*
X162885732Y-84235131D01*
X162870292Y-84224041D01*
X162865977Y-84203308D01*
X162862292Y-84159145D01*
X162859531Y-84097146D01*
X162857988Y-84022909D01*
X162857765Y-83984706D01*
X162857543Y-83764783D01*
X162811834Y-83748849D01*
X162779482Y-83738015D01*
X162761885Y-83732962D01*
X162761377Y-83732914D01*
X162759612Y-83746648D01*
X162757671Y-83784730D01*
X162755718Y-83842482D01*
X162753916Y-83915227D01*
X162752657Y-83983286D01*
X162748686Y-84233657D01*
X162661600Y-84233657D01*
X162657604Y-84005240D01*
X162653608Y-83776822D01*
X162611153Y-83754868D01*
X162579808Y-83739793D01*
X162561256Y-83732951D01*
X162560721Y-83732914D01*
X162558167Y-83746663D01*
G36*
X163147883Y-83853358D02*
G01*
X163148067Y-83961837D01*
X163148781Y-84045287D01*
X163150325Y-84107704D01*
X163152999Y-84153085D01*
X163157106Y-84185429D01*
X163162945Y-84208733D01*
X163170818Y-84226995D01*
X163176779Y-84237418D01*
X163226145Y-84293945D01*
X163288736Y-84329377D01*
X163357987Y-84342090D01*
X163427332Y-84330463D01*
X163468625Y-84309568D01*
X163511975Y-84273422D01*
X163541519Y-84229276D01*
X163559345Y-84171462D01*
X163567537Y-84094313D01*
X163568698Y-84037714D01*
X163568542Y-84033647D01*
X163467143Y-84033647D01*
X163466524Y-84098550D01*
X163463686Y-84141514D01*
X163457160Y-84169622D01*
X163445477Y-84189953D01*
X163431517Y-84205288D01*
X163384635Y-84234890D01*
X163334299Y-84237419D01*
X163286724Y-84212705D01*
X163283021Y-84209356D01*
X163267217Y-84191935D01*
X163257307Y-84171209D01*
X163251942Y-84140362D01*
X163249772Y-84092577D01*
X163249429Y-84039748D01*
X163250173Y-83973381D01*
X163253252Y-83929106D01*
X163259939Y-83900009D01*
X163271504Y-83879173D01*
X163280987Y-83868107D01*
X163325040Y-83840198D01*
X163375776Y-83836843D01*
X163424204Y-83858159D01*
X163433550Y-83866073D01*
X163449460Y-83883647D01*
X163459390Y-83904587D01*
X163464722Y-83935782D01*
X163466837Y-83984122D01*
X163467143Y-84033647D01*
X163568542Y-84033647D01*
X163565190Y-83946568D01*
X163553274Y-83878086D01*
X163530865Y-83826600D01*
X163495876Y-83786443D01*
X163468625Y-83765861D01*
X163419093Y-83743625D01*
X163361684Y-83733304D01*
X163308318Y-83736067D01*
X163278457Y-83747212D01*
X163266739Y-83750383D01*
X163258963Y-83738557D01*
X163253535Y-83706866D01*
X163249429Y-83658593D01*
X163244933Y-83604829D01*
X163238687Y-83572482D01*
X163227324Y-83553985D01*
X163207472Y-83541770D01*
X163195000Y-83536362D01*
X163147829Y-83516601D01*
X163147883Y-83853358D01*
G37*
X163147883Y-83853358D02*
X163148067Y-83961837D01*
X163148781Y-84045287D01*
X163150325Y-84107704D01*
X163152999Y-84153085D01*
X163157106Y-84185429D01*
X163162945Y-84208733D01*
X163170818Y-84226995D01*
X163176779Y-84237418D01*
X163226145Y-84293945D01*
X163288736Y-84329377D01*
X163357987Y-84342090D01*
X163427332Y-84330463D01*
X163468625Y-84309568D01*
X163511975Y-84273422D01*
X163541519Y-84229276D01*
X163559345Y-84171462D01*
X163567537Y-84094313D01*
X163568698Y-84037714D01*
X163568542Y-84033647D01*
X163467143Y-84033647D01*
X163466524Y-84098550D01*
X163463686Y-84141514D01*
X163457160Y-84169622D01*
X163445477Y-84189953D01*
X163431517Y-84205288D01*
X163384635Y-84234890D01*
X163334299Y-84237419D01*
X163286724Y-84212705D01*
X163283021Y-84209356D01*
X163267217Y-84191935D01*
X163257307Y-84171209D01*
X163251942Y-84140362D01*
X163249772Y-84092577D01*
X163249429Y-84039748D01*
X163250173Y-83973381D01*
X163253252Y-83929106D01*
X163259939Y-83900009D01*
X163271504Y-83879173D01*
X163280987Y-83868107D01*
X163325040Y-83840198D01*
X163375776Y-83836843D01*
X163424204Y-83858159D01*
X163433550Y-83866073D01*
X163449460Y-83883647D01*
X163459390Y-83904587D01*
X163464722Y-83935782D01*
X163466837Y-83984122D01*
X163467143Y-84033647D01*
X163568542Y-84033647D01*
X163565190Y-83946568D01*
X163553274Y-83878086D01*
X163530865Y-83826600D01*
X163495876Y-83786443D01*
X163468625Y-83765861D01*
X163419093Y-83743625D01*
X163361684Y-83733304D01*
X163308318Y-83736067D01*
X163278457Y-83747212D01*
X163266739Y-83750383D01*
X163258963Y-83738557D01*
X163253535Y-83706866D01*
X163249429Y-83658593D01*
X163244933Y-83604829D01*
X163238687Y-83572482D01*
X163227324Y-83553985D01*
X163207472Y-83541770D01*
X163195000Y-83536362D01*
X163147829Y-83516601D01*
X163147883Y-83853358D01*
G36*
X163808074Y-83737755D02*
G01*
X163742142Y-83762084D01*
X163688727Y-83805117D01*
X163667836Y-83835409D01*
X163645061Y-83890994D01*
X163645534Y-83931186D01*
X163669438Y-83958217D01*
X163678283Y-83962813D01*
X163716470Y-83977144D01*
X163735972Y-83973472D01*
X163742578Y-83949407D01*
X163742914Y-83936114D01*
X163755008Y-83887210D01*
X163786529Y-83852999D01*
X163830341Y-83836476D01*
X163879305Y-83840634D01*
X163919106Y-83862227D01*
X163932550Y-83874544D01*
X163942079Y-83889487D01*
X163948515Y-83912075D01*
X163952683Y-83947328D01*
X163955403Y-84000266D01*
X163957498Y-84075907D01*
X163958040Y-84099857D01*
X163960019Y-84181790D01*
X163962269Y-84239455D01*
X163965643Y-84277608D01*
X163970994Y-84301004D01*
X163979176Y-84314398D01*
X163991041Y-84322545D01*
X163998638Y-84326144D01*
X164030898Y-84338452D01*
X164049889Y-84342514D01*
X164056164Y-84328948D01*
X164059994Y-84287934D01*
X164061400Y-84218999D01*
X164060402Y-84121669D01*
X164060092Y-84106657D01*
X164057899Y-84017859D01*
X164055307Y-83953019D01*
X164051618Y-83907067D01*
X164046136Y-83874935D01*
X164038165Y-83851553D01*
X164027007Y-83831852D01*
X164021170Y-83823410D01*
X163987704Y-83786057D01*
X163950273Y-83757003D01*
X163945691Y-83754467D01*
X163878574Y-83734443D01*
X163808074Y-83737755D01*
G37*
X163808074Y-83737755D02*
X163742142Y-83762084D01*
X163688727Y-83805117D01*
X163667836Y-83835409D01*
X163645061Y-83890994D01*
X163645534Y-83931186D01*
X163669438Y-83958217D01*
X163678283Y-83962813D01*
X163716470Y-83977144D01*
X163735972Y-83973472D01*
X163742578Y-83949407D01*
X163742914Y-83936114D01*
X163755008Y-83887210D01*
X163786529Y-83852999D01*
X163830341Y-83836476D01*
X163879305Y-83840634D01*
X163919106Y-83862227D01*
X163932550Y-83874544D01*
X163942079Y-83889487D01*
X163948515Y-83912075D01*
X163952683Y-83947328D01*
X163955403Y-84000266D01*
X163957498Y-84075907D01*
X163958040Y-84099857D01*
X163960019Y-84181790D01*
X163962269Y-84239455D01*
X163965643Y-84277608D01*
X163970994Y-84301004D01*
X163979176Y-84314398D01*
X163991041Y-84322545D01*
X163998638Y-84326144D01*
X164030898Y-84338452D01*
X164049889Y-84342514D01*
X164056164Y-84328948D01*
X164059994Y-84287934D01*
X164061400Y-84218999D01*
X164060402Y-84121669D01*
X164060092Y-84106657D01*
X164057899Y-84017859D01*
X164055307Y-83953019D01*
X164051618Y-83907067D01*
X164046136Y-83874935D01*
X164038165Y-83851553D01*
X164027007Y-83831852D01*
X164021170Y-83823410D01*
X163987704Y-83786057D01*
X163950273Y-83757003D01*
X163945691Y-83754467D01*
X163878574Y-83734443D01*
X163808074Y-83737755D01*
G36*
X164298256Y-83738968D02*
G01*
X164241384Y-83760087D01*
X164240733Y-83760493D01*
X164205560Y-83786380D01*
X164179593Y-83816633D01*
X164161330Y-83856058D01*
X164149268Y-83909462D01*
X164141904Y-83981651D01*
X164137736Y-84077432D01*
X164137371Y-84091078D01*
X164132124Y-84296842D01*
X164176284Y-84319678D01*
X164208237Y-84335110D01*
X164227530Y-84342423D01*
X164228422Y-84342514D01*
X164231761Y-84329022D01*
X164234413Y-84292626D01*
X164236044Y-84239452D01*
X164236400Y-84196393D01*
X164236408Y-84126641D01*
X164239597Y-84082837D01*
X164250712Y-84061944D01*
X164274499Y-84060925D01*
X164315704Y-84076741D01*
X164377914Y-84105815D01*
X164423659Y-84129963D01*
X164447187Y-84150913D01*
X164454104Y-84173747D01*
X164454114Y-84174877D01*
X164442701Y-84214212D01*
X164408908Y-84235462D01*
X164357191Y-84238539D01*
X164319939Y-84238006D01*
X164300297Y-84248735D01*
X164288048Y-84274505D01*
X164280998Y-84307337D01*
X164291158Y-84325966D01*
X164294983Y-84328632D01*
X164330999Y-84339340D01*
X164381434Y-84340856D01*
X164433374Y-84333759D01*
X164470178Y-84320788D01*
X164521062Y-84277585D01*
X164549986Y-84217446D01*
X164555714Y-84170462D01*
X164551343Y-84128082D01*
X164535525Y-84093488D01*
X164504203Y-84062763D01*
X164453322Y-84031990D01*
X164378824Y-83997252D01*
X164374286Y-83995288D01*
X164307179Y-83964287D01*
X164265768Y-83938862D01*
X164248019Y-83916014D01*
X164251893Y-83892745D01*
X164275357Y-83866056D01*
X164282373Y-83859914D01*
X164329370Y-83836100D01*
X164378067Y-83837103D01*
X164420478Y-83860451D01*
X164448616Y-83903675D01*
X164451231Y-83912160D01*
X164476692Y-83953308D01*
X164508999Y-83973128D01*
X164555714Y-83992770D01*
X164555714Y-83941950D01*
X164541504Y-83868082D01*
X164499325Y-83800327D01*
X164477376Y-83777661D01*
X164427483Y-83748569D01*
X164364033Y-83735400D01*
X164298256Y-83738968D01*
G37*
X164298256Y-83738968D02*
X164241384Y-83760087D01*
X164240733Y-83760493D01*
X164205560Y-83786380D01*
X164179593Y-83816633D01*
X164161330Y-83856058D01*
X164149268Y-83909462D01*
X164141904Y-83981651D01*
X164137736Y-84077432D01*
X164137371Y-84091078D01*
X164132124Y-84296842D01*
X164176284Y-84319678D01*
X164208237Y-84335110D01*
X164227530Y-84342423D01*
X164228422Y-84342514D01*
X164231761Y-84329022D01*
X164234413Y-84292626D01*
X164236044Y-84239452D01*
X164236400Y-84196393D01*
X164236408Y-84126641D01*
X164239597Y-84082837D01*
X164250712Y-84061944D01*
X164274499Y-84060925D01*
X164315704Y-84076741D01*
X164377914Y-84105815D01*
X164423659Y-84129963D01*
X164447187Y-84150913D01*
X164454104Y-84173747D01*
X164454114Y-84174877D01*
X164442701Y-84214212D01*
X164408908Y-84235462D01*
X164357191Y-84238539D01*
X164319939Y-84238006D01*
X164300297Y-84248735D01*
X164288048Y-84274505D01*
X164280998Y-84307337D01*
X164291158Y-84325966D01*
X164294983Y-84328632D01*
X164330999Y-84339340D01*
X164381434Y-84340856D01*
X164433374Y-84333759D01*
X164470178Y-84320788D01*
X164521062Y-84277585D01*
X164549986Y-84217446D01*
X164555714Y-84170462D01*
X164551343Y-84128082D01*
X164535525Y-84093488D01*
X164504203Y-84062763D01*
X164453322Y-84031990D01*
X164378824Y-83997252D01*
X164374286Y-83995288D01*
X164307179Y-83964287D01*
X164265768Y-83938862D01*
X164248019Y-83916014D01*
X164251893Y-83892745D01*
X164275357Y-83866056D01*
X164282373Y-83859914D01*
X164329370Y-83836100D01*
X164378067Y-83837103D01*
X164420478Y-83860451D01*
X164448616Y-83903675D01*
X164451231Y-83912160D01*
X164476692Y-83953308D01*
X164508999Y-83973128D01*
X164555714Y-83992770D01*
X164555714Y-83941950D01*
X164541504Y-83868082D01*
X164499325Y-83800327D01*
X164477376Y-83777661D01*
X164427483Y-83748569D01*
X164364033Y-83735400D01*
X164298256Y-83738968D01*
G36*
X164962114Y-83639289D02*
G01*
X164957861Y-83698613D01*
X164952975Y-83733572D01*
X164946205Y-83748820D01*
X164936298Y-83749015D01*
X164933086Y-83747195D01*
X164890356Y-83734015D01*
X164834773Y-83734785D01*
X164778263Y-83748333D01*
X164742918Y-83765861D01*
X164706679Y-83793861D01*
X164680187Y-83825549D01*
X164662001Y-83865813D01*
X164650678Y-83919543D01*
X164644778Y-83991626D01*
X164642857Y-84086951D01*
X164642823Y-84105237D01*
X164642800Y-84310646D01*
X164688509Y-84326580D01*
X164720973Y-84337420D01*
X164738785Y-84342468D01*
X164739309Y-84342514D01*
X164741063Y-84328828D01*
X164742556Y-84291076D01*
X164743674Y-84234224D01*
X164744303Y-84163234D01*
X164744400Y-84120073D01*
X164744602Y-84034973D01*
X164745642Y-83973981D01*
X164748169Y-83932177D01*
X164752836Y-83904642D01*
X164760293Y-83886456D01*
X164771189Y-83872698D01*
X164777993Y-83866073D01*
X164824728Y-83839375D01*
X164875728Y-83837375D01*
X164921999Y-83859955D01*
X164930556Y-83868107D01*
X164943107Y-83883436D01*
X164951812Y-83901618D01*
X164957369Y-83927909D01*
X164960474Y-83967562D01*
X164961824Y-84025832D01*
X164962114Y-84106173D01*
X164962114Y-84310646D01*
X165007823Y-84326580D01*
X165040287Y-84337420D01*
X165058099Y-84342468D01*
X165058623Y-84342514D01*
X165059963Y-84328623D01*
X165061172Y-84289439D01*
X165062199Y-84228700D01*
X165062998Y-84150141D01*
X165063519Y-84057498D01*
X165063714Y-83954509D01*
X165063714Y-83557342D01*
X165016543Y-83537444D01*
X164969371Y-83517547D01*
X164962114Y-83639289D01*
G37*
X164962114Y-83639289D02*
X164957861Y-83698613D01*
X164952975Y-83733572D01*
X164946205Y-83748820D01*
X164936298Y-83749015D01*
X164933086Y-83747195D01*
X164890356Y-83734015D01*
X164834773Y-83734785D01*
X164778263Y-83748333D01*
X164742918Y-83765861D01*
X164706679Y-83793861D01*
X164680187Y-83825549D01*
X164662001Y-83865813D01*
X164650678Y-83919543D01*
X164644778Y-83991626D01*
X164642857Y-84086951D01*
X164642823Y-84105237D01*
X164642800Y-84310646D01*
X164688509Y-84326580D01*
X164720973Y-84337420D01*
X164738785Y-84342468D01*
X164739309Y-84342514D01*
X164741063Y-84328828D01*
X164742556Y-84291076D01*
X164743674Y-84234224D01*
X164744303Y-84163234D01*
X164744400Y-84120073D01*
X164744602Y-84034973D01*
X164745642Y-83973981D01*
X164748169Y-83932177D01*
X164752836Y-83904642D01*
X164760293Y-83886456D01*
X164771189Y-83872698D01*
X164777993Y-83866073D01*
X164824728Y-83839375D01*
X164875728Y-83837375D01*
X164921999Y-83859955D01*
X164930556Y-83868107D01*
X164943107Y-83883436D01*
X164951812Y-83901618D01*
X164957369Y-83927909D01*
X164960474Y-83967562D01*
X164961824Y-84025832D01*
X164962114Y-84106173D01*
X164962114Y-84310646D01*
X165007823Y-84326580D01*
X165040287Y-84337420D01*
X165058099Y-84342468D01*
X165058623Y-84342514D01*
X165059963Y-84328623D01*
X165061172Y-84289439D01*
X165062199Y-84228700D01*
X165062998Y-84150141D01*
X165063519Y-84057498D01*
X165063714Y-83954509D01*
X165063714Y-83557342D01*
X165016543Y-83537444D01*
X164969371Y-83517547D01*
X164962114Y-83639289D01*
G36*
X166169697Y-83719239D02*
G01*
X166112473Y-83757735D01*
X166068251Y-83813335D01*
X166041833Y-83884086D01*
X166036490Y-83936162D01*
X166037097Y-83957893D01*
X166042178Y-83974531D01*
X166056145Y-83989437D01*
X166083411Y-84005973D01*
X166128388Y-84027498D01*
X166195489Y-84057374D01*
X166195829Y-84057524D01*
X166257593Y-84085813D01*
X166308241Y-84110933D01*
X166342596Y-84130179D01*
X166355482Y-84140848D01*
X166355486Y-84140934D01*
X166344128Y-84164166D01*
X166317569Y-84189774D01*
X166287077Y-84208221D01*
X166271630Y-84211886D01*
X166229485Y-84199212D01*
X166193192Y-84167471D01*
X166175483Y-84132572D01*
X166158448Y-84106845D01*
X166125078Y-84077546D01*
X166085851Y-84052235D01*
X166051244Y-84038471D01*
X166044007Y-84037714D01*
X166035861Y-84050160D01*
X166035370Y-84081972D01*
X166041357Y-84124866D01*
X166052643Y-84170558D01*
X166068050Y-84210761D01*
X166068829Y-84212322D01*
X166115196Y-84277062D01*
X166175289Y-84321097D01*
X166243535Y-84342711D01*
X166314362Y-84340185D01*
X166382196Y-84311804D01*
X166385212Y-84309808D01*
X166438573Y-84261448D01*
X166473660Y-84198352D01*
X166493078Y-84115387D01*
X166495684Y-84092078D01*
X166500299Y-83982055D01*
X166494767Y-83930748D01*
X166355486Y-83930748D01*
X166353676Y-83962753D01*
X166343778Y-83972093D01*
X166319102Y-83965105D01*
X166280205Y-83948587D01*
X166236725Y-83927881D01*
X166235644Y-83927333D01*
X166198791Y-83907949D01*
X166184000Y-83895013D01*
X166187647Y-83881451D01*
X166203005Y-83863632D01*
X166242077Y-83837845D01*
X166284154Y-83835950D01*
X166321897Y-83854717D01*
X166347966Y-83890915D01*
X166355486Y-83930748D01*
X166494767Y-83930748D01*
X166490806Y-83894027D01*
X166466450Y-83824212D01*
X166432544Y-83775302D01*
X166371347Y-83725878D01*
X166303937Y-83701359D01*
X166235120Y-83699797D01*
X166169697Y-83719239D01*
G37*
X166169697Y-83719239D02*
X166112473Y-83757735D01*
X166068251Y-83813335D01*
X166041833Y-83884086D01*
X166036490Y-83936162D01*
X166037097Y-83957893D01*
X166042178Y-83974531D01*
X166056145Y-83989437D01*
X166083411Y-84005973D01*
X166128388Y-84027498D01*
X166195489Y-84057374D01*
X166195829Y-84057524D01*
X166257593Y-84085813D01*
X166308241Y-84110933D01*
X166342596Y-84130179D01*
X166355482Y-84140848D01*
X166355486Y-84140934D01*
X166344128Y-84164166D01*
X166317569Y-84189774D01*
X166287077Y-84208221D01*
X166271630Y-84211886D01*
X166229485Y-84199212D01*
X166193192Y-84167471D01*
X166175483Y-84132572D01*
X166158448Y-84106845D01*
X166125078Y-84077546D01*
X166085851Y-84052235D01*
X166051244Y-84038471D01*
X166044007Y-84037714D01*
X166035861Y-84050160D01*
X166035370Y-84081972D01*
X166041357Y-84124866D01*
X166052643Y-84170558D01*
X166068050Y-84210761D01*
X166068829Y-84212322D01*
X166115196Y-84277062D01*
X166175289Y-84321097D01*
X166243535Y-84342711D01*
X166314362Y-84340185D01*
X166382196Y-84311804D01*
X166385212Y-84309808D01*
X166438573Y-84261448D01*
X166473660Y-84198352D01*
X166493078Y-84115387D01*
X166495684Y-84092078D01*
X166500299Y-83982055D01*
X166494767Y-83930748D01*
X166355486Y-83930748D01*
X166353676Y-83962753D01*
X166343778Y-83972093D01*
X166319102Y-83965105D01*
X166280205Y-83948587D01*
X166236725Y-83927881D01*
X166235644Y-83927333D01*
X166198791Y-83907949D01*
X166184000Y-83895013D01*
X166187647Y-83881451D01*
X166203005Y-83863632D01*
X166242077Y-83837845D01*
X166284154Y-83835950D01*
X166321897Y-83854717D01*
X166347966Y-83890915D01*
X166355486Y-83930748D01*
X166494767Y-83930748D01*
X166490806Y-83894027D01*
X166466450Y-83824212D01*
X166432544Y-83775302D01*
X166371347Y-83725878D01*
X166303937Y-83701359D01*
X166235120Y-83699797D01*
X166169697Y-83719239D01*
G36*
X167296885Y-83709962D02*
G01*
X167228855Y-83745733D01*
X167178649Y-83803301D01*
X167160815Y-83840312D01*
X167146937Y-83895882D01*
X167139833Y-83966096D01*
X167139160Y-84042727D01*
X167144573Y-84117552D01*
X167155730Y-84182342D01*
X167172286Y-84228873D01*
X167177374Y-84236887D01*
X167237645Y-84296707D01*
X167309231Y-84332535D01*
X167386908Y-84343020D01*
X167465452Y-84326810D01*
X167487311Y-84317092D01*
X167529878Y-84287143D01*
X167567237Y-84247433D01*
X167570768Y-84242397D01*
X167585119Y-84218124D01*
X167594606Y-84192178D01*
X167600210Y-84158022D01*
X167602914Y-84109119D01*
X167603701Y-84038935D01*
X167603714Y-84023200D01*
X167603678Y-84018192D01*
X167458571Y-84018192D01*
X167457727Y-84084430D01*
X167454404Y-84128386D01*
X167447417Y-84156779D01*
X167435584Y-84176325D01*
X167429543Y-84182857D01*
X167394814Y-84207680D01*
X167361097Y-84206548D01*
X167327005Y-84185016D01*
X167306671Y-84162029D01*
X167294629Y-84128478D01*
X167287866Y-84075569D01*
X167287402Y-84069399D01*
X167286248Y-83973513D01*
X167298312Y-83902299D01*
X167323430Y-83856194D01*
X167361440Y-83835635D01*
X167375008Y-83834514D01*
X167410636Y-83840152D01*
X167435006Y-83859686D01*
X167449907Y-83897042D01*
X167457125Y-83956150D01*
X167458571Y-84018192D01*
X167603678Y-84018192D01*
X167603174Y-83948413D01*
X167600904Y-83896159D01*
X167595932Y-83859949D01*
X167587287Y-83833299D01*
X167573995Y-83809722D01*
X167571057Y-83805338D01*
X167521687Y-83746249D01*
X167467891Y-83711947D01*
X167402398Y-83698331D01*
X167380158Y-83697665D01*
X167296885Y-83709962D01*
G37*
X167296885Y-83709962D02*
X167228855Y-83745733D01*
X167178649Y-83803301D01*
X167160815Y-83840312D01*
X167146937Y-83895882D01*
X167139833Y-83966096D01*
X167139160Y-84042727D01*
X167144573Y-84117552D01*
X167155730Y-84182342D01*
X167172286Y-84228873D01*
X167177374Y-84236887D01*
X167237645Y-84296707D01*
X167309231Y-84332535D01*
X167386908Y-84343020D01*
X167465452Y-84326810D01*
X167487311Y-84317092D01*
X167529878Y-84287143D01*
X167567237Y-84247433D01*
X167570768Y-84242397D01*
X167585119Y-84218124D01*
X167594606Y-84192178D01*
X167600210Y-84158022D01*
X167602914Y-84109119D01*
X167603701Y-84038935D01*
X167603714Y-84023200D01*
X167603678Y-84018192D01*
X167458571Y-84018192D01*
X167457727Y-84084430D01*
X167454404Y-84128386D01*
X167447417Y-84156779D01*
X167435584Y-84176325D01*
X167429543Y-84182857D01*
X167394814Y-84207680D01*
X167361097Y-84206548D01*
X167327005Y-84185016D01*
X167306671Y-84162029D01*
X167294629Y-84128478D01*
X167287866Y-84075569D01*
X167287402Y-84069399D01*
X167286248Y-83973513D01*
X167298312Y-83902299D01*
X167323430Y-83856194D01*
X167361440Y-83835635D01*
X167375008Y-83834514D01*
X167410636Y-83840152D01*
X167435006Y-83859686D01*
X167449907Y-83897042D01*
X167457125Y-83956150D01*
X167458571Y-84018192D01*
X167603678Y-84018192D01*
X167603174Y-83948413D01*
X167600904Y-83896159D01*
X167595932Y-83859949D01*
X167587287Y-83833299D01*
X167573995Y-83809722D01*
X167571057Y-83805338D01*
X167521687Y-83746249D01*
X167467891Y-83711947D01*
X167402398Y-83698331D01*
X167380158Y-83697665D01*
X167296885Y-83709962D01*
G36*
X165621907Y-83715780D02*
G01*
X165575328Y-83742723D01*
X165542943Y-83769466D01*
X165519258Y-83797484D01*
X165502941Y-83831748D01*
X165492661Y-83877227D01*
X165487086Y-83938892D01*
X165484884Y-84021711D01*
X165484629Y-84081246D01*
X165484629Y-84300391D01*
X165546314Y-84328044D01*
X165608000Y-84355697D01*
X165615257Y-84115670D01*
X165618256Y-84026028D01*
X165621402Y-83960962D01*
X165625299Y-83916026D01*
X165630553Y-83886770D01*
X165637769Y-83868748D01*
X165647550Y-83857511D01*
X165650688Y-83855079D01*
X165698239Y-83836083D01*
X165746303Y-83843600D01*
X165774914Y-83863543D01*
X165786553Y-83877675D01*
X165794609Y-83896220D01*
X165799729Y-83924334D01*
X165802559Y-83967173D01*
X165803744Y-84029895D01*
X165803943Y-84095261D01*
X165803982Y-84177268D01*
X165805386Y-84235316D01*
X165810086Y-84274465D01*
X165820013Y-84299780D01*
X165837097Y-84316323D01*
X165863268Y-84329156D01*
X165898225Y-84342491D01*
X165936404Y-84357007D01*
X165931859Y-84099389D01*
X165930029Y-84006519D01*
X165927888Y-83937889D01*
X165924819Y-83888711D01*
X165920206Y-83854198D01*
X165913432Y-83829562D01*
X165903881Y-83810016D01*
X165892366Y-83792770D01*
X165836810Y-83737680D01*
X165769020Y-83705822D01*
X165695287Y-83698191D01*
X165621907Y-83715780D01*
G37*
X165621907Y-83715780D02*
X165575328Y-83742723D01*
X165542943Y-83769466D01*
X165519258Y-83797484D01*
X165502941Y-83831748D01*
X165492661Y-83877227D01*
X165487086Y-83938892D01*
X165484884Y-84021711D01*
X165484629Y-84081246D01*
X165484629Y-84300391D01*
X165546314Y-84328044D01*
X165608000Y-84355697D01*
X165615257Y-84115670D01*
X165618256Y-84026028D01*
X165621402Y-83960962D01*
X165625299Y-83916026D01*
X165630553Y-83886770D01*
X165637769Y-83868748D01*
X165647550Y-83857511D01*
X165650688Y-83855079D01*
X165698239Y-83836083D01*
X165746303Y-83843600D01*
X165774914Y-83863543D01*
X165786553Y-83877675D01*
X165794609Y-83896220D01*
X165799729Y-83924334D01*
X165802559Y-83967173D01*
X165803744Y-84029895D01*
X165803943Y-84095261D01*
X165803982Y-84177268D01*
X165805386Y-84235316D01*
X165810086Y-84274465D01*
X165820013Y-84299780D01*
X165837097Y-84316323D01*
X165863268Y-84329156D01*
X165898225Y-84342491D01*
X165936404Y-84357007D01*
X165931859Y-84099389D01*
X165930029Y-84006519D01*
X165927888Y-83937889D01*
X165924819Y-83888711D01*
X165920206Y-83854198D01*
X165913432Y-83829562D01*
X165903881Y-83810016D01*
X165892366Y-83792770D01*
X165836810Y-83737680D01*
X165769020Y-83705822D01*
X165695287Y-83698191D01*
X165621907Y-83715780D01*
G36*
X166738256Y-83707918D02*
G01*
X166682799Y-83735568D01*
X166633852Y-83786480D01*
X166620371Y-83805338D01*
X166605686Y-83830015D01*
X166596158Y-83856816D01*
X166590707Y-83892587D01*
X166588253Y-83944169D01*
X166587714Y-84012267D01*
X166590148Y-84105588D01*
X166598606Y-84175657D01*
X166614826Y-84227931D01*
X166640546Y-84267869D01*
X166677503Y-84300929D01*
X166680218Y-84302886D01*
X166716640Y-84322908D01*
X166760498Y-84332815D01*
X166816276Y-84335257D01*
X166906952Y-84335257D01*
X166906990Y-84423283D01*
X166907834Y-84472308D01*
X166912976Y-84501065D01*
X166926413Y-84518311D01*
X166952142Y-84532808D01*
X166958321Y-84535769D01*
X166987236Y-84549648D01*
X167009624Y-84558414D01*
X167026271Y-84559171D01*
X167037964Y-84549023D01*
X167045490Y-84525073D01*
X167049634Y-84484426D01*
X167051185Y-84424186D01*
X167050929Y-84341455D01*
X167049651Y-84233339D01*
X167049252Y-84201000D01*
X167047815Y-84089524D01*
X167046528Y-84016603D01*
X166907029Y-84016603D01*
X166906245Y-84078499D01*
X166902760Y-84118997D01*
X166894876Y-84145708D01*
X166880895Y-84166244D01*
X166871403Y-84176260D01*
X166832596Y-84205567D01*
X166798237Y-84207952D01*
X166762784Y-84183750D01*
X166761886Y-84182857D01*
X166747461Y-84164153D01*
X166738687Y-84138732D01*
X166734261Y-84099584D01*
X166732882Y-84039697D01*
X166732857Y-84026430D01*
X166736188Y-83943901D01*
X166747031Y-83886691D01*
X166766660Y-83851766D01*
X166796350Y-83836094D01*
X166813509Y-83834514D01*
X166854234Y-83841926D01*
X166882168Y-83866330D01*
X166898983Y-83910980D01*
X166906350Y-83979130D01*
X166907029Y-84016603D01*
X167046528Y-84016603D01*
X167046292Y-84003245D01*
X167044323Y-83938333D01*
X167041550Y-83890958D01*
X167037612Y-83857290D01*
X167032151Y-83833498D01*
X167024808Y-83815753D01*
X167015223Y-83800224D01*
X167011113Y-83794381D01*
X166956595Y-83739185D01*
X166887664Y-83707890D01*
X166807928Y-83699165D01*
X166738256Y-83707918D01*
G37*
X166738256Y-83707918D02*
X166682799Y-83735568D01*
X166633852Y-83786480D01*
X166620371Y-83805338D01*
X166605686Y-83830015D01*
X166596158Y-83856816D01*
X166590707Y-83892587D01*
X166588253Y-83944169D01*
X166587714Y-84012267D01*
X166590148Y-84105588D01*
X166598606Y-84175657D01*
X166614826Y-84227931D01*
X166640546Y-84267869D01*
X166677503Y-84300929D01*
X166680218Y-84302886D01*
X166716640Y-84322908D01*
X166760498Y-84332815D01*
X166816276Y-84335257D01*
X166906952Y-84335257D01*
X166906990Y-84423283D01*
X166907834Y-84472308D01*
X166912976Y-84501065D01*
X166926413Y-84518311D01*
X166952142Y-84532808D01*
X166958321Y-84535769D01*
X166987236Y-84549648D01*
X167009624Y-84558414D01*
X167026271Y-84559171D01*
X167037964Y-84549023D01*
X167045490Y-84525073D01*
X167049634Y-84484426D01*
X167051185Y-84424186D01*
X167050929Y-84341455D01*
X167049651Y-84233339D01*
X167049252Y-84201000D01*
X167047815Y-84089524D01*
X167046528Y-84016603D01*
X166907029Y-84016603D01*
X166906245Y-84078499D01*
X166902760Y-84118997D01*
X166894876Y-84145708D01*
X166880895Y-84166244D01*
X166871403Y-84176260D01*
X166832596Y-84205567D01*
X166798237Y-84207952D01*
X166762784Y-84183750D01*
X166761886Y-84182857D01*
X166747461Y-84164153D01*
X166738687Y-84138732D01*
X166734261Y-84099584D01*
X166732882Y-84039697D01*
X166732857Y-84026430D01*
X166736188Y-83943901D01*
X166747031Y-83886691D01*
X166766660Y-83851766D01*
X166796350Y-83836094D01*
X166813509Y-83834514D01*
X166854234Y-83841926D01*
X166882168Y-83866330D01*
X166898983Y-83910980D01*
X166906350Y-83979130D01*
X166907029Y-84016603D01*
X167046528Y-84016603D01*
X167046292Y-84003245D01*
X167044323Y-83938333D01*
X167041550Y-83890958D01*
X167037612Y-83857290D01*
X167032151Y-83833498D01*
X167024808Y-83815753D01*
X167015223Y-83800224D01*
X167011113Y-83794381D01*
X166956595Y-83739185D01*
X166887664Y-83707890D01*
X166807928Y-83699165D01*
X166738256Y-83707918D01*
D13*
X147955000Y-90932000D03*
X142955000Y-90932000D03*
D14*
X144145000Y-74930000D03*
X149225000Y-74930000D03*
X159385000Y-74930000D03*
X154305000Y-74930000D03*
X128905000Y-74930000D03*
X123825000Y-74930000D03*
X168275000Y-74930000D03*
X173355000Y-74930000D03*
D15*
X135890000Y-90805000D03*
X138430000Y-83185000D03*
X135890000Y-78105000D03*
D16*
X149225000Y-106990000D03*
D17*
X149225000Y-110490000D03*
D16*
X131445000Y-106990000D03*
D17*
X131445000Y-110490000D03*
D18*
X147955000Y-83185000D03*
D19*
X142875000Y-83185000D03*
D13*
X156845000Y-87630000D03*
D20*
X164345000Y-87630000D03*
D16*
X140335000Y-106990000D03*
D17*
X140335000Y-110490000D03*
D21*
X139065000Y-97790000D03*
X154305000Y-97790000D03*
X133985000Y-97790000D03*
X136525000Y-97790000D03*
X151765000Y-97790000D03*
D22*
X124587000Y-86360000D03*
X124587000Y-81361280D03*
X124587000Y-96362520D03*
X124587000Y-101361240D03*
D15*
X166243000Y-102130000D03*
X158743000Y-100330000D03*
X130280000Y-87510000D03*
X132080000Y-80010000D03*
D22*
X173355000Y-86438740D03*
X173355000Y-81440020D03*
X173355000Y-96441260D03*
X173355000Y-101439980D03*
D23*
X158115000Y-110490000D03*
X163195000Y-110490000D03*
X168275000Y-110490000D03*
D24*
X173355000Y-110490000D03*
D25*
X172720000Y-107061000D02*
X172649000Y-106990000D01*
X172649000Y-106990000D02*
X162377000Y-106990000D01*
X162377000Y-93338000D02*
X162377000Y-102306000D01*
X162377000Y-103688000D02*
X162377000Y-106990000D01*
X162377000Y-102306000D02*
X162377000Y-103688000D01*
X142955000Y-90932000D02*
X142955000Y-95076000D01*
X162377000Y-103688000D02*
X151567000Y-103688000D01*
X142955000Y-95076000D02*
X146177000Y-98298000D01*
X173355000Y-107696000D02*
X172649000Y-106990000D01*
X173355000Y-110490000D02*
X173355000Y-107696000D01*
X140335000Y-106990000D02*
X140335000Y-106934000D01*
X140335000Y-106934000D02*
X147574000Y-99695000D01*
X146177000Y-98298000D02*
X147574000Y-99695000D01*
X147574000Y-99695000D02*
X151567000Y-103688000D01*
X164345000Y-87630000D02*
X164345000Y-91370000D01*
X164345000Y-91370000D02*
X162377000Y-93338000D01*
D26*
X142748000Y-83058000D02*
X142875000Y-83185000D01*
X138430000Y-83058000D02*
X142748000Y-83058000D01*
D25*
X147955000Y-93980000D02*
X151765000Y-97790000D01*
X147955000Y-90932000D02*
X147955000Y-92456000D01*
X147955000Y-92456000D02*
X147955000Y-93980000D01*
D26*
X147447000Y-92964000D02*
X147955000Y-92456000D01*
D25*
X154305000Y-81915000D02*
X154305000Y-80010000D01*
X154305000Y-80010000D02*
X154305000Y-74930000D01*
D26*
X152400000Y-83185000D02*
X152717500Y-83502500D01*
D25*
X152717500Y-83502500D02*
X154305000Y-81915000D01*
X149225000Y-83185000D02*
X151130000Y-85090000D01*
X147955000Y-83185000D02*
X149225000Y-83185000D01*
X151130000Y-85090000D02*
X152717500Y-83502500D01*
X149225000Y-86995000D02*
X151130000Y-85090000D01*
X134746326Y-86995000D02*
X149225000Y-86995000D01*
X133223000Y-88518326D02*
X134746326Y-86995000D01*
X131445000Y-106990000D02*
X131897000Y-106990000D01*
X131897000Y-106990000D02*
X133223000Y-105664000D01*
X133223000Y-105664000D02*
X133223000Y-88518326D01*
X144145000Y-74930000D02*
X128905000Y-74930000D01*
X128905000Y-86135000D02*
X128905000Y-74930000D01*
X130280000Y-87510000D02*
X128905000Y-86135000D01*
D26*
X136525000Y-91313000D02*
X135890000Y-90678000D01*
X136525000Y-97790000D02*
X136525000Y-91313000D01*
M02*
