M48
; DRILL file {KiCad (5.1.6)-1} date 08/05/20 18:30:38
; FORMAT={-:-/ absolute / inch / decimal}
; #@! TF.CreationDate,2020-08-05T18:30:38+02:00
; #@! TF.GenerationSoftware,Kicad,Pcbnew,(5.1.6)-1
; #@! TF.FileFunction,Plated,1,2,PTH
FMAT,2
INCH
T1C0.0315
T2C0.0394
T3C0.0433
T4C0.0472
T5C0.0512
T6C0.0531
T7C0.0551
%
G90
G05
T1
X5.175Y-4.2122
X5.175Y-4.35
X5.525Y-4.2122
X5.525Y-4.35
X6.2497Y-3.95
X6.545Y-4.0209
X5.1291Y-3.4453
X5.2Y-3.15
X5.875Y-4.2122
X5.875Y-4.35
T2
X5.35Y-3.075
X5.35Y-3.575
X5.45Y-3.275
X5.6281Y-3.58
X5.825Y-3.58
X5.275Y-3.85
X5.375Y-3.85
X5.475Y-3.85
X5.975Y-3.85
X6.075Y-3.85
T3
X5.625Y-3.275
X5.825Y-3.275
T4
X6.175Y-3.45
X6.4703Y-3.45
T5
X4.875Y-2.95
X5.075Y-2.95
X5.675Y-2.95
X6.625Y-2.95
X6.075Y-2.95
X6.825Y-2.95
X6.275Y-2.95
X5.875Y-2.95
T6
X4.905Y-3.2032
X4.905Y-3.4
X4.905Y-3.7938
X4.905Y-3.9906
X6.825Y-3.2063
X6.825Y-3.4031
X6.825Y-3.7969
X6.825Y-3.9937
T7
X6.225Y-4.35
X6.425Y-4.35
X6.625Y-4.35
X6.825Y-4.35
T0
M30
