G04 #@! TF.GenerationSoftware,KiCad,Pcbnew,(5.1.6)-1*
G04 #@! TF.CreationDate,2020-08-05T18:30:33+02:00*
G04 #@! TF.ProjectId,C64-PSU-251053-11_Austauschplatine,4336342d-5053-4552-9d32-35313035332d,0.3.1*
G04 #@! TF.SameCoordinates,Original*
G04 #@! TF.FileFunction,Copper,L1,Top*
G04 #@! TF.FilePolarity,Positive*
%FSLAX46Y46*%
G04 Gerber Fmt 4.6, Leading zero omitted, Abs format (unit mm)*
G04 Created by KiCad (PCBNEW (5.1.6)-1) date 2020-08-05 18:30:33*
%MOMM*%
%LPD*%
G01*
G04 APERTURE LIST*
G04 #@! TA.AperFunction,ComponentPad*
%ADD10C,2.400000*%
G04 #@! TD*
G04 #@! TA.AperFunction,ComponentPad*
%ADD11R,3.000000X3.000000*%
G04 #@! TD*
G04 #@! TA.AperFunction,ComponentPad*
%ADD12C,1.800000*%
G04 #@! TD*
G04 #@! TA.AperFunction,ComponentPad*
%ADD13R,1.600000X1.600000*%
G04 #@! TD*
G04 #@! TA.AperFunction,ComponentPad*
%ADD14C,1.600000*%
G04 #@! TD*
G04 #@! TA.AperFunction,ComponentPad*
%ADD15R,2.200000X2.200000*%
G04 #@! TD*
G04 #@! TA.AperFunction,ComponentPad*
%ADD16O,2.200000X2.200000*%
G04 #@! TD*
G04 #@! TA.AperFunction,ComponentPad*
%ADD17R,2.400000X2.400000*%
G04 #@! TD*
G04 #@! TA.AperFunction,SMDPad,CuDef*
%ADD18R,2.500000X2.000000*%
G04 #@! TD*
G04 #@! TA.AperFunction,ComponentPad*
%ADD19O,1.270000X2.540000*%
G04 #@! TD*
G04 #@! TA.AperFunction,ComponentPad*
%ADD20C,2.349500*%
G04 #@! TD*
G04 #@! TA.AperFunction,ComponentPad*
%ADD21C,2.800000*%
G04 #@! TD*
G04 #@! TA.AperFunction,ComponentPad*
%ADD22R,2.800000X2.800000*%
G04 #@! TD*
G04 #@! TA.AperFunction,Conductor*
%ADD23C,2.540000*%
G04 #@! TD*
G04 #@! TA.AperFunction,Conductor*
%ADD24C,1.270000*%
G04 #@! TD*
G04 #@! TA.AperFunction,Conductor*
%ADD25C,2.000000*%
G04 #@! TD*
G04 #@! TA.AperFunction,Conductor*
%ADD26C,0.508000*%
G04 #@! TD*
G04 APERTURE END LIST*
D10*
X147955000Y-90932000D03*
X142955000Y-90932000D03*
D11*
X144145000Y-74930000D03*
X149225000Y-74930000D03*
X159385000Y-74930000D03*
X154305000Y-74930000D03*
X128905000Y-74930000D03*
X123825000Y-74930000D03*
X168275000Y-74930000D03*
X173355000Y-74930000D03*
D12*
X135890000Y-90805000D03*
X138430000Y-83185000D03*
X135890000Y-78105000D03*
D13*
X149225000Y-106990000D03*
D14*
X149225000Y-110490000D03*
D13*
X131445000Y-106990000D03*
D14*
X131445000Y-110490000D03*
D15*
X147955000Y-83185000D03*
D16*
X142875000Y-83185000D03*
D10*
X156845000Y-87630000D03*
D17*
X164345000Y-87630000D03*
D18*
X125095000Y-110490000D03*
X125095000Y-106490000D03*
X121285000Y-106490000D03*
X121285000Y-110490000D03*
D13*
X140335000Y-106990000D03*
D14*
X140335000Y-110490000D03*
D19*
X139065000Y-97790000D03*
X154305000Y-97790000D03*
X133985000Y-97790000D03*
X136525000Y-97790000D03*
X151765000Y-97790000D03*
D18*
X130429000Y-98425000D03*
X130429000Y-94425000D03*
D20*
X124587000Y-86360000D03*
X124587000Y-81361280D03*
X124587000Y-96362520D03*
X124587000Y-101361240D03*
D12*
X166243000Y-102130000D03*
X158743000Y-100330000D03*
X130280000Y-87510000D03*
X132080000Y-80010000D03*
D20*
X173355000Y-86438740D03*
X173355000Y-81440020D03*
X173355000Y-96441260D03*
X173355000Y-101439980D03*
D21*
X158115000Y-110490000D03*
X163195000Y-110490000D03*
X168275000Y-110490000D03*
D22*
X173355000Y-110490000D03*
D23*
X157480000Y-110490000D02*
X149225000Y-110490000D01*
X140335000Y-110490000D02*
X137541000Y-110490000D01*
X137541000Y-104394000D02*
X137541000Y-110490000D01*
X139065000Y-102870000D02*
X137541000Y-104394000D01*
X145415000Y-109855000D02*
X144780000Y-110490000D01*
X145415000Y-99060000D02*
X145415000Y-109855000D01*
X149225000Y-110490000D02*
X144780000Y-110490000D01*
X144780000Y-110490000D02*
X140335000Y-110490000D01*
X137541000Y-110490000D02*
X131445000Y-110490000D01*
X159385000Y-74930000D02*
X159385000Y-85090000D01*
D24*
X139065000Y-97790000D02*
X139065000Y-98040275D01*
D23*
X142875000Y-83185000D02*
X146685000Y-86995000D01*
X159385000Y-85090000D02*
X155892500Y-88582500D01*
X155892500Y-88582500D02*
X154305000Y-90170000D01*
D25*
X121285000Y-110490000D02*
X131445000Y-110490000D01*
D24*
X130429000Y-100965000D02*
X130429000Y-98425000D01*
X130429000Y-100965000D02*
X139065000Y-100965000D01*
D23*
X154305000Y-90170000D02*
X145415000Y-99060000D01*
X151765000Y-87630000D02*
X154305000Y-90170000D01*
X151130000Y-86995000D02*
X151765000Y-87630000D01*
X146685000Y-86995000D02*
X151130000Y-86995000D01*
X139065000Y-102870000D02*
X139065000Y-97790000D01*
X151765000Y-104450000D02*
X149225000Y-106990000D01*
X151765000Y-97790000D02*
X151765000Y-104450000D01*
D24*
X144462000Y-94425000D02*
X147955000Y-90932000D01*
X130429000Y-94425000D02*
X144462000Y-94425000D01*
D25*
X130945000Y-106490000D02*
X131445000Y-106990000D01*
X121285000Y-106490000D02*
X130945000Y-106490000D01*
D23*
X158743000Y-100330000D02*
X158743000Y-95892000D01*
X158743000Y-95892000D02*
X160655000Y-93980000D01*
X160655000Y-93980000D02*
X165093000Y-93980000D01*
X168275000Y-90798000D02*
X165093000Y-93980000D01*
X168275000Y-74930000D02*
X168275000Y-90798000D01*
X158743000Y-102355000D02*
X158743000Y-100330000D01*
X163195000Y-110490000D02*
X163195000Y-106807000D01*
X163195000Y-106807000D02*
X158743000Y-102355000D01*
X172664980Y-102130000D02*
X173355000Y-101439980D01*
X173355000Y-96441260D02*
X173355000Y-101439980D01*
X167640000Y-102235000D02*
X167535000Y-102130000D01*
X166243000Y-102130000D02*
X167535000Y-102130000D01*
X167535000Y-102130000D02*
X172664980Y-102130000D01*
X168275000Y-102870000D02*
X167535000Y-102130000D01*
X168275000Y-110490000D02*
X168275000Y-102870000D01*
X173355000Y-74930000D02*
X173355000Y-86438740D01*
X124587000Y-86360000D02*
X124587000Y-81361280D01*
X123825000Y-80599280D02*
X124587000Y-81361280D01*
X123825000Y-74930000D02*
X123825000Y-80599280D01*
X149225000Y-75593202D02*
X145443202Y-79375000D01*
X149225000Y-74930000D02*
X149225000Y-75593202D01*
X145443202Y-79375000D02*
X138430000Y-79375000D01*
X133350000Y-84455000D02*
X133350000Y-88900000D01*
X133350000Y-88900000D02*
X131445000Y-90805000D01*
X138430000Y-79375000D02*
X134937500Y-82867500D01*
X134937500Y-82867500D02*
X133350000Y-84455000D01*
X132979999Y-80909999D02*
X134937500Y-82867500D01*
X132080000Y-80010000D02*
X132979999Y-80909999D01*
X124587000Y-94701173D02*
X124587000Y-96362520D01*
X128483173Y-90805000D02*
X124587000Y-94701173D01*
X131445000Y-90805000D02*
X128483173Y-90805000D01*
X124587000Y-101361240D02*
X124587000Y-96362520D01*
D26*
X136525000Y-97790000D02*
X136525000Y-98425000D01*
X136525000Y-97155000D02*
X136525000Y-97790000D01*
M02*
