M48
;DRILL file {KiCad 4.0.7} date Sunday, 21. January 2018 'u49' 20:49:59
;FORMAT={-:-/ absolute / metric / decimal}
FMAT,2
METRIC,TZ
T1C0.800
T2C1.000
T3C1.100
T4C1.100
T5C1.300
T6C1.349
T7C1.500
%
G90
G05
M71
T1
X82.55Y-127.
X84.35Y-119.5
X85.21Y-138.43
X89.21Y-121.92
X92.71Y-121.92
X92.71Y-138.43
X113.03Y-123.5
X113.03Y-127.
X114.3Y-114.3
X114.3Y-117.8
X115.04Y-142.12
X116.84Y-134.62
T2
X105.41Y-142.24
X107.95Y-134.62
X107.95Y-147.32
T3
X97.899Y-126.401
X99.799Y-126.401
X101.6Y-126.401
X103.401Y-126.401
X105.301Y-126.401
T4
X101.6Y-133.35
X101.6Y-135.89
T5
X76.2Y-113.03
X81.3Y-113.03
X86.4Y-113.03
X91.5Y-113.03
X100.33Y-115.57
X105.33Y-115.57
T6
X76.2Y-122.08
X76.2Y-127.079
X76.2Y-137.081
X76.2Y-142.08
X124.46Y-122.08
X124.46Y-127.079
X124.46Y-137.081
X124.46Y-142.08
T7
X77.47Y-148.59
X82.55Y-148.59
X95.25Y-148.59
X100.33Y-148.59
X111.76Y-148.59
X116.84Y-148.59
X119.38Y-148.59
X124.46Y-148.59
T0
M30
